{
customParameters = (
{
name = vendorID;
value = PfEd;
},
{
name = glyphOrder;
value = (
    ".notdef",
    uni0000,
    uni000D,
    "uniE000.001",
    uniE001,
    uniE002,
    uniE003,
    uniE004,
    uniE005,
    uniE006,
    uniE007,
    uniE008,
    uniE009,
    uniE00A,
    uniE00B,
    uniE00C,
    uniE00D,
    uniE00E,
    uniE00F,
    uniE010,
    uniE011,
    uniE012,
    uniE013,
    uniE014,
    uniE015,
    uniE016,
    uniE017,
    uniE018,
    uniE019,
    uniE01A,
    uniE01B,
    uniE01C,
    uniE01D,
    uniE01E,
    uniE01F,
    uniE020,
    uniE021,
    uniE022,
    uniE023,
    uniE024,
    uniE025,
    uniE026,
    uniE027,
    uniE028,
    uniE029,
    uniE02A,
    uniE02B,
    uniE02C,
    uniE02D,
    uniE02E,
    uniE02F,
    uniE030,
    uniE031,
    uniE032,
    uniE033,
    uniE034,
    uniE035,
    uniE036,
    uniE037,
    uniE038,
    uniE039,
    uniE03A,
    uniE03B,
    uniE03C,
    uniE03D,
    uniE03E,
    uniE03F,
    uniE040,
    uniE041,
    uniE042,
    uniE043,
    uniE044,
    uniE045,
    uniE046,
    uniE047,
    uniE048,
    uniE049,
    uniE04A,
    uniE04B,
    uniE04C,
    uniE04D,
    uniE04E,
    uniE04F,
    uniE050,
    uniE051,
    uniE052,
    uniE053,
    uniE054,
    uniE055,
    uniE056,
    uniE057,
    uniE058,
    uniE059,
    uniE05A,
    uniE05B,
    uniE05C,
    uniE05D,
    uniE05E,
    uniF000,
    "uniF000.001",
    "uniF000.002",
    "uniF000.003",
    "uniF000.004",
    "uniF000.005",
    "uniF000.006",
    "uniF000.007",
    uniE000,
    "uniE000.002",
    "uniE000.003",
    "uniE000.004",
    NULL
);
}
);
date = "2014-03-24 17:55:58 +0000";
familyName = "GuardianIcons";
fontMaster = (
{
ascender = 1920;
capHeight = 0;
customParameters = (
{
name = typoAscender;
value = 1920;
},
{
name = typoDescender;
value = "-128";
},
{
name = typoLineGap;
value = 184;
}
);
descender = "-128";
id = "8F42D1CE-E3A3-4C93-A330-F9A6EBA349AF";
weightValue = 400;
widthValue = 5;
xHeight = 0;
}
);
glyphs = (
{
glyphname = uniE000.001;
layers = (
{
layerId = "8F42D1CE-E3A3-4C93-A330-F9A6EBA349AF";
name = Regular;
paths = (
{
closed = 1;
nodes = (
"1140 800 LINE",
"2040 80 LINE",
"1980 4 LINE",
"1024 448 LINE",
"60 4 LINE",
"4 80 LINE",
"904 800 LINE",
"1024 900 LINE"
);
},
{
closed = 1;
nodes = (
"1024 1788 LINE",
"1140 1692 LINE",
"2040 972 LINE",
"1980 900 LINE",
"1024 1340 LINE",
"64 900 LINE",
"4 972 LINE",
"836 1640 LINE",
"832 1640 LINE",
"892 1684 LINE"
);
}
);
width = 2048;
}
);
unicode = E000;
},
{
glyphname = uniE001;
layers = (
{
layerId = "8F42D1CE-E3A3-4C93-A330-F9A6EBA349AF";
name = Regular;
paths = (
{
closed = 1;
nodes = (
"900 992 LINE",
"0 1716 LINE",
"60 1788 LINE",
"1020 1344 LINE",
"1980 1788 LINE",
"2040 1716 LINE",
"1016 896 LINE"
);
},
{
closed = 1;
nodes = (
"1016 8 LINE",
"0 820 LINE",
"60 896 LINE",
"1020 452 LINE",
"1980 896 LINE",
"2040 820 LINE",
"1148 108 LINE"
);
}
);
width = 2048;
}
);
unicode = E001;
},
{
glyphname = uniE002;
layers = (
{
layerId = "8F42D1CE-E3A3-4C93-A330-F9A6EBA349AF";
name = Regular;
paths = (
{
closed = 1;
nodes = (
"48 1324 LINE",
"1020 768 LINE",
"1996 1324 LINE",
"2044 1264 LINE",
"1116 524 LINE",
"1020 444 LINE",
"924 524 LINE",
"0 1264 LINE"
);
}
);
width = 2048;
}
);
unicode = E002;
},
{
glyphname = uniE003;
layers = (
{
layerId = "8F42D1CE-E3A3-4C93-A330-F9A6EBA349AF";
name = Regular;
paths = (
{
closed = 1;
nodes = (
"1028 1336 LINE",
"2048 516 LINE",
"2000 456 LINE",
"1028 960 LINE",
"52 456 LINE",
"4 516 LINE"
);
}
);
width = 2048;
}
);
unicode = E003;
},
{
glyphname = uniE004;
layers = (
{
layerId = "8F42D1CE-E3A3-4C93-A330-F9A6EBA349AF";
name = Regular;
paths = (
{
closed = 1;
nodes = (
"2048 772 LINE",
"556 772 LINE",
"996 -64 LINE",
"936 -112 LINE",
"128 896 LINE",
"208 992 LINE",
"936 1904 LINE",
"996 1856 LINE",
"556 1020 LINE",
"2048 1020 LINE"
);
}
);
width = 2048;
}
);
unicode = E004;
},
{
glyphname = uniE005;
layers = (
{
layerId = "8F42D1CE-E3A3-4C93-A330-F9A6EBA349AF";
name = Regular;
paths = (
{
closed = 1;
nodes = (
"0 772 LINE",
"0 1020 LINE",
"1524 1020 LINE",
"1084 1856 LINE",
"1144 1904 LINE",
"1952 896 LINE",
"1872 800 LINE",
"1144 -112 LINE",
"1084 -64 LINE",
"1524 772 LINE"
);
}
);
width = 2048;
}
);
unicode = E005;
},
{
glyphname = uniE006;
layers = (
{
layerId = "8F42D1CE-E3A3-4C93-A330-F9A6EBA349AF";
name = Regular;
paths = (
{
closed = 1;
nodes = (
"1180 1016 LINE",
"1900 1916 LINE",
"1976 1856 LINE",
"1532 896 LINE",
"1976 -64 LINE",
"1900 -124 LINE",
"1180 776 LINE",
"1080 896 LINE"
);
},
{
closed = 1;
nodes = (
"192 896 LINE",
"284 1016 LINE",
"1008 1912 LINE",
"1080 1856 LINE",
"636 896 LINE",
"1080 -64 LINE",
"1008 -124 LINE",
"340 708 LINE",
"296 768 LINE",
"284 776 LINE"
);
}
);
width = 2048;
}
);
unicode = E006;
},
{
glyphname = uniE007;
layers = (
{
layerId = "8F42D1CE-E3A3-4C93-A330-F9A6EBA349AF";
name = Regular;
paths = (
{
closed = 1;
nodes = (
"948 772 LINE",
"228 -128 LINE",
"152 -68 LINE",
"596 888 LINE",
"152 1852 LINE",
"228 1912 LINE",
"948 1008 LINE",
"1048 888 LINE"
);
},
{
closed = 1;
nodes = (
"1936 888 LINE",
"1840 772 LINE",
"1120 -128 LINE",
"1048 -68 LINE",
"1488 888 LINE",
"1048 1852 LINE",
"1120 1908 LINE",
"1788 1080 LINE",
"1832 1020 LINE"
);
}
);
width = 2048;
}
);
unicode = E007;
},
{
glyphname = uniE008;
layers = (
{
layerId = "8F42D1CE-E3A3-4C93-A330-F9A6EBA349AF";
name = Regular;
paths = (
{
closed = 1;
nodes = (
"1920 1600 LINE",
"1920 864 LINE",
"1893 661 OFFCURVE",
"1807 493 OFFCURVE",
"1714 394 CURVE SMOOTH",
"1621 295 OFFCURVE",
"1485 216 OFFCURVE",
"1386 184 CURVE SMOOTH",
"1287 152 OFFCURVE",
"1149 128 OFFCURVE",
"1088 128 CURVE",
"1088 308 LINE",
"1227 345 OFFCURVE",
"1333 433 OFFCURVE",
"1378 510 CURVE SMOOTH",
"1423 587 OFFCURVE",
"1456 701 OFFCURVE",
"1456 768 CURVE",
"1088 768 LINE",
"1088 1600 LINE"
);
},
{
closed = 1;
nodes = (
"896 1600 LINE",
"896 860 LINE",
"869 663 OFFCURVE",
"783 493 OFFCURVE",
"690 392 CURVE SMOOTH",
"597 291 OFFCURVE",
"415 178 OFFCURVE",
"240 147 CURVE SMOOTH",
"153 132 OFFCURVE",
"94 124 OFFCURVE",
"64 124 CURVE",
"64 308 LINE",
"203 340 OFFCURVE",
"309 433 OFFCURVE",
"354 508 CURVE SMOOTH",
"399 583 OFFCURVE",
"432 701 OFFCURVE",
"432 768 CURVE",
"64 768 LINE",
"64 1600 LINE"
);
}
);
width = 2048;
}
);
unicode = E008;
},
{
glyphname = uniE009;
layers = (
{
layerId = "8F42D1CE-E3A3-4C93-A330-F9A6EBA349AF";
name = Regular;
paths = (
{
closed = 1;
nodes = (
"1216 1920 LINE",
"1920 1920 LINE",
"1920 1224 LINE",
"1780 1224 LINE",
"1660 1488 LINE",
"1652 1504 LINE",
"1196 1048 LINE",
"1028 1220 LINE",
"1480 1672 LINE",
"1216 1800 LINE"
);
},
{
closed = 1;
nodes = (
"256 1600 LINE",
"256 320 LINE",
"1600 320 LINE",
"1600 892 LINE",
"1792 892 LINE",
"1792 192 LINE",
"1728 192 LINE",
"1728 128 LINE",
"128 128 LINE",
"128 192 LINE",
"64 192 LINE",
"64 1728 LINE",
"128 1728 LINE",
"128 1792 LINE",
"896 1792 LINE",
"896 1600 LINE"
);
}
);
width = 2048;
}
);
unicode = E009;
},
{
glyphname = uniE00A;
layers = (
{
layerId = "8F42D1CE-E3A3-4C93-A330-F9A6EBA349AF";
name = Regular;
paths = (
{
closed = 1;
nodes = (
"1432 1868 LINE",
"920 896 LINE",
"1432 -80 LINE",
"1372 -128 LINE",
"632 800 LINE",
"552 896 LINE",
"632 992 LINE",
"1372 1916 LINE"
);
}
);
width = 2048;
}
);
unicode = E00A;
},
{
glyphname = uniE00B;
layers = (
{
layerId = "8F42D1CE-E3A3-4C93-A330-F9A6EBA349AF";
name = Regular;
paths = (
{
closed = 1;
nodes = (
"580 -80 LINE",
"1092 892 LINE",
"580 1868 LINE",
"640 1916 LINE",
"1380 988 LINE",
"1460 892 LINE",
"1380 796 LINE",
"640 -128 LINE"
);
}
);
width = 2048;
}
);
unicode = E00B;
},
{
glyphname = uniE00C;
lastChange = "2014-07-01 10:32:29 +0000";
layers = (
{
layerId = "8F42D1CE-E3A3-4C93-A330-F9A6EBA349AF";
name = Regular;
paths = (
{
closed = 1;
nodes = (
"1197 1179 OFFCURVE",
"1117 1151 OFFCURVE",
"1021 1151 CURVE SMOOTH",
"927 1151 OFFCURVE",
"848 1173 OFFCURVE",
"848 1442 CURVE SMOOTH",
"848 1711 OFFCURVE",
"927 1746 OFFCURVE",
"1021 1746 CURVE SMOOTH",
"1119 1746 OFFCURVE",
"1197 1705 OFFCURVE",
"1197 1442 CURVE SMOOTH"
);
},
{
closed = 1;
nodes = (
"730 439 OFFCURVE",
"693 350 OFFCURVE",
"693 284 CURVE SMOOTH",
"693 188 OFFCURVE",
"781 102 OFFCURVE",
"1029 102 CURVE SMOOTH",
"1314 102 OFFCURVE",
"1391 180 OFFCURVE",
"1391 284 CURVE SMOOTH",
"1391 377 OFFCURVE",
"1323 439 OFFCURVE",
"1207 439 CURVE SMOOTH",
"850 439 LINE SMOOTH"
);
},
{
closed = 1;
nodes = (
"291 1634 OFFCURVE",
"61 1298 OFFCURVE",
"61 913 CURVE SMOOTH",
"61 649 OFFCURVE",
"167 411 OFFCURVE",
"338 237 CURVE",
"338 243 OFFCURVE",
"338 245 OFFCURVE",
"338 250 CURVE SMOOTH",
"338 423 OFFCURVE",
"505 486 OFFCURVE",
"653 517 CURVE",
"653 517 LINE",
"513 547 OFFCURVE",
"444 648 OFFCURVE",
"444 752 CURVE SMOOTH",
"444 891 OFFCURVE",
"599 1010 OFFCURVE",
"673 1061 CURVE",
"666 1066 LINE SMOOTH",
"533 1139 OFFCURVE",
"446 1267 OFFCURVE",
"446 1442 CURVE SMOOTH",
"446 1592 OFFCURVE",
"510 1708 OFFCURVE",
"622 1787 CURVE"
);
},
{
closed = 1;
nodes = (
"1984 1308 OFFCURVE",
"1744 1650 OFFCURVE",
"1401 1796 CURVE",
"1518 1721 OFFCURVE",
"1587 1608 OFFCURVE",
"1592 1461 CURVE",
"1594 1449 OFFCURVE",
"1594 1438 OFFCURVE",
"1594 1428 CURVE SMOOTH",
"1594 1141 OFFCURVE",
"1360 989 OFFCURVE",
"1021 989 CURVE SMOOTH",
"934 989 OFFCURVE",
"874 993 OFFCURVE",
"805 1016 CURVE",
"772 990 OFFCURVE",
"745 955 OFFCURVE",
"745 918 CURVE SMOOTH",
"745 871 OFFCURVE",
"787 834 OFFCURVE",
"840 834 CURVE SMOOTH",
"1312 834 LINE SMOOTH",
"1604 834 OFFCURVE",
"1747 713 OFFCURVE",
"1747 456 CURVE SMOOTH",
"1747 369 OFFCURVE",
"1729 292 OFFCURVE",
"1695 225 CURVE",
"1872 399 OFFCURVE",
"1984 643 OFFCURVE",
"1984 913 CURVE SMOOTH"
);
}
);
width = 2048;
}
);
unicode = E00C;
},
{
glyphname = uniE00D;
layers = (
{
layerId = "8F42D1CE-E3A3-4C93-A330-F9A6EBA349AF";
name = Regular;
paths = (
{
closed = 1;
nodes = (
"1472 1216 LINE",
"1856 1216 LINE",
"1856 -64 LINE",
"1472 -64 LINE"
);
},
{
closed = 1;
nodes = (
"832 1728 LINE",
"1212 1728 LINE",
"1212 -64 LINE",
"832 -64 LINE"
);
},
{
closed = 1;
nodes = (
"192 576 LINE",
"576 576 LINE",
"576 -64 LINE",
"192 -64 LINE"
);
}
);
width = 2048;
}
);
unicode = E00D;
},
{
glyphname = uniE00E;
layers = (
{
layerId = "8F42D1CE-E3A3-4C93-A330-F9A6EBA349AF";
name = Regular;
paths = (
{
closed = 1;
nodes = (
"1488 728 LINE",
"892 728 LINE",
"892 1524 LINE",
"992 1524 LINE",
"1092 928 LINE",
"1488 828 LINE"
);
},
{
closed = 1;
nodes = (
"1707 523 OFFCURVE",
"1784 709 OFFCURVE",
"1784 928 CURVE SMOOTH",
"1784 1365 OFFCURVE",
"1429 1720 OFFCURVE",
"992 1720 CURVE SMOOTH",
"555 1720 OFFCURVE",
"200 1365 OFFCURVE",
"200 928 CURVE SMOOTH",
"200 491 OFFCURVE",
"555 136 OFFCURVE",
"992 136 CURVE SMOOTH",
"1211 136 OFFCURVE",
"1397 213 OFFCURVE",
"1552 368 CURVE SMOOTH"
);
},
{
closed = 1;
nodes = (
"1887 1436 OFFCURVE",
"1984 1203 OFFCURVE",
"1984 928 CURVE SMOOTH",
"1984 379 OFFCURVE",
"1541 -64 OFFCURVE",
"992 -64 CURVE SMOOTH",
"443 -64 OFFCURVE",
"0 379 OFFCURVE",
"0 928 CURVE SMOOTH",
"0 1477 OFFCURVE",
"443 1920 OFFCURVE",
"992 1920 CURVE SMOOTH",
"1267 1920 OFFCURVE",
"1500 1823 OFFCURVE",
"1692 1628 CURVE SMOOTH"
);
}
);
width = 2048;
}
);
unicode = E00E;
},
{
glyphname = uniE00F;
layers = (
{
layerId = "8F42D1CE-E3A3-4C93-A330-F9A6EBA349AF";
name = Regular;
paths = (
{
closed = 1;
nodes = (
"1280 256 LINE",
"1216 256 LINE",
"1216 320 LINE",
"1152 320 LINE",
"1152 384 LINE",
"896 384 LINE",
"896 320 LINE",
"832 320 LINE",
"832 256 LINE",
"768 256 LINE",
"768 192 LINE",
"1280 192 LINE"
);
},
{
closed = 1;
nodes = (
"192 576 LINE",
"1856 576 LINE",
"1856 1536 LINE",
"192 1536 LINE"
);
},
{
closed = 1;
nodes = (
"2048 -64 LINE",
"0 -64 LINE",
"0 104 LINE",
"192 408 LINE",
"4 512 LINE",
"4 1600 LINE",
"128 1728 LINE",
"1920 1728 LINE",
"2036 1600 LINE",
"2036 508 LINE",
"1856 408 LINE",
"2048 104 LINE"
);
}
);
width = 2048;
}
);
unicode = E00F;
},
{
glyphname = uniE010;
layers = (
{
layerId = "8F42D1CE-E3A3-4C93-A330-F9A6EBA349AF";
name = Regular;
paths = (
{
closed = 1;
nodes = (
"4 820 LINE",
"0 820 LINE",
"0 1792 LINE",
"128 1920 LINE",
"896 1920 LINE",
"1024 1792 LINE",
"1024 -128 LINE",
"512 256 LINE",
"4 -128 LINE"
);
}
);
width = 1024;
}
);
unicode = E010;
},
{
glyphname = uniE011;
layers = (
{
layerId = "8F42D1CE-E3A3-4C93-A330-F9A6EBA349AF";
name = Regular;
paths = (
{
closed = 1;
nodes = (
"1600 896 LINE",
"1152 832 LINE",
"832 832 LINE",
"384 896 LINE",
"384 976 LINE",
"832 1024 LINE",
"1152 1024 LINE",
"1600 976 LINE"
);
},
{
closed = 1;
nodes = (
"1707 523 OFFCURVE",
"1784 709 OFFCURVE",
"1784 928 CURVE SMOOTH",
"1784 1365 OFFCURVE",
"1429 1720 OFFCURVE",
"992 1720 CURVE SMOOTH",
"555 1720 OFFCURVE",
"200 1365 OFFCURVE",
"200 928 CURVE SMOOTH",
"200 491 OFFCURVE",
"555 136 OFFCURVE",
"992 136 CURVE SMOOTH",
"1211 136 OFFCURVE",
"1397 213 OFFCURVE",
"1552 368 CURVE SMOOTH"
);
},
{
closed = 1;
nodes = (
"1887 1436 OFFCURVE",
"1984 1203 OFFCURVE",
"1984 928 CURVE SMOOTH",
"1984 379 OFFCURVE",
"1541 -64 OFFCURVE",
"992 -64 CURVE SMOOTH",
"443 -64 OFFCURVE",
"0 379 OFFCURVE",
"0 928 CURVE SMOOTH",
"0 1477 OFFCURVE",
"443 1920 OFFCURVE",
"992 1920 CURVE SMOOTH",
"1267 1920 OFFCURVE",
"1500 1823 OFFCURVE",
"1692 1628 CURVE SMOOTH"
);
}
);
width = 2048;
}
);
unicode = E011;
},
{
glyphname = uniE012;
layers = (
{
layerId = "8F42D1CE-E3A3-4C93-A330-F9A6EBA349AF";
name = Regular;
paths = (
{
closed = 1;
nodes = (
"960 820 LINE",
"896 820 LINE",
"448 888 LINE",
"448 964 LINE",
"896 1012 LINE",
"960 1012 LINE",
"960 1076 LINE",
"1024 1524 LINE",
"1104 1524 LINE",
"1152 1076 LINE",
"1152 1012 LINE",
"1216 1012 LINE",
"1664 964 LINE",
"1664 888 LINE",
"1216 820 LINE",
"1152 820 LINE",
"1152 756 LINE",
"1104 308 LINE",
"1024 308 LINE",
"960 756 LINE"
);
},
{
closed = 1;
nodes = (
"1771 511 OFFCURVE",
"1848 697 OFFCURVE",
"1848 916 CURVE SMOOTH",
"1848 1353 OFFCURVE",
"1493 1712 OFFCURVE",
"1056 1712 CURVE SMOOTH",
"619 1712 OFFCURVE",
"264 1353 OFFCURVE",
"264 916 CURVE SMOOTH",
"264 479 OFFCURVE",
"619 124 OFFCURVE",
"1056 124 CURVE SMOOTH",
"1275 124 OFFCURVE",
"1461 201 OFFCURVE",
"1616 356 CURVE SMOOTH"
);
},
{
closed = 1;
nodes = (
"1951 1424 OFFCURVE",
"2048 1191 OFFCURVE",
"2048 918 CURVE SMOOTH",
"2048 371 OFFCURVE",
"1605 -76 OFFCURVE",
"1056 -76 CURVE SMOOTH",
"507 -76 OFFCURVE",
"64 371 OFFCURVE",
"64 918 CURVE SMOOTH",
"64 1465 OFFCURVE",
"507 1908 OFFCURVE",
"1056 1908 CURVE SMOOTH",
"1331 1908 OFFCURVE",
"1564 1811 OFFCURVE",
"1756 1616 CURVE SMOOTH"
);
}
);
width = 2048;
}
);
unicode = E012;
},
{
glyphname = uniE013;
layers = (
{
layerId = "8F42D1CE-E3A3-4C93-A330-F9A6EBA349AF";
name = Regular;
paths = (
{
closed = 1;
nodes = (
"653 366 OFFCURVE",
"672 398 OFFCURVE",
"672 468 CURVE",
"675 479 OFFCURVE",
"687 491 OFFCURVE",
"710 506 CURVE SMOOTH",
"733 521 OFFCURVE",
"743 537 OFFCURVE",
"740 554 CURVE SMOOTH",
"737 571 OFFCURVE",
"743 593 OFFCURVE",
"756 620 CURVE SMOOTH",
"769 647 OFFCURVE",
"776 669 OFFCURVE",
"776 686 CURVE SMOOTH",
"776 703 OFFCURVE",
"750 720 OFFCURVE",
"699 737 CURVE SMOOTH",
"648 754 OFFCURVE",
"617 776 OFFCURVE",
"608 804 CURVE",
"597 817 OFFCURVE",
"580 828 OFFCURVE",
"556 836 CURVE SMOOTH",
"532 844 OFFCURVE",
"515 852 OFFCURVE",
"504 860 CURVE SMOOTH",
"493 868 OFFCURVE",
"449 884 OFFCURVE",
"372 908 CURVE",
"340 900 LINE SMOOTH",
"263 879 OFFCURVE",
"235 889 OFFCURVE",
"256 932 CURVE",
"267 948 OFFCURVE",
"249 952 OFFCURVE",
"244 952 CURVE SMOOTH",
"212 952 LINE",
"196 963 OFFCURVE",
"202 971 OFFCURVE",
"210 990 CURVE SMOOTH",
"214 999 OFFCURVE",
"216 1005 OFFCURVE",
"216 1008 CURVE",
"208 1019 OFFCURVE",
"194 1016 OFFCURVE",
"175 1000 CURVE SMOOTH",
"135 967 OFFCURVE",
"101 985 OFFCURVE",
"98 1044 CURVE SMOOTH",
"97 1073 OFFCURVE",
"107 1097 OFFCURVE",
"128 1116 CURVE",
"136 1124 OFFCURVE",
"146 1125 OFFCURVE",
"158 1118 CURVE SMOOTH",
"170 1111 OFFCURVE",
"180 1111 OFFCURVE",
"188 1116 CURVE",
"209 1137 OFFCURVE",
"246 1125 OFFCURVE",
"263 1101 CURVE SMOOTH",
"272 1088 OFFCURVE",
"276 1080 OFFCURVE",
"276 1076 CURVE",
"292 1116 LINE SMOOTH",
"325 1199 OFFCURVE",
"346 1243 OFFCURVE",
"355 1248 CURVE SMOOTH",
"364 1253 OFFCURVE",
"371 1261 OFFCURVE",
"378 1272 CURVE SMOOTH",
"391 1293 OFFCURVE",
"405 1314 OFFCURVE",
"418 1306 CURVE SMOOTH",
"431 1298 OFFCURVE",
"479 1313 OFFCURVE",
"498 1324 CURVE SMOOTH",
"507 1329 OFFCURVE",
"515 1333 OFFCURVE",
"520 1336 CURVE",
"496 1344 LINE",
"459 1366 OFFCURVE",
"433 1371 OFFCURVE",
"416 1360 CURVE",
"437 1387 OFFCURVE",
"515 1411 OFFCURVE",
"552 1416 CURVE",
"555 1416 OFFCURVE",
"552 1427 OFFCURVE",
"544 1448 CURVE SMOOTH",
"528 1491 OFFCURVE",
"499 1539 OFFCURVE",
"488 1544 CURVE",
"468 1532 LINE SMOOTH",
"441 1516 OFFCURVE",
"433 1520 OFFCURVE",
"444 1544 CURVE",
"384 1588 LINE",
"371 1585 OFFCURVE",
"361 1566 OFFCURVE",
"356 1530 CURVE SMOOTH",
"351 1494 OFFCURVE",
"344 1472 OFFCURVE",
"336 1464 CURVE",
"328 1459 OFFCURVE",
"325 1449 OFFCURVE",
"326 1436 CURVE SMOOTH",
"329 1409 OFFCURVE",
"307 1397 OFFCURVE",
"296 1408 CURVE SMOOTH",
"291 1413 OFFCURVE",
"286 1422 OFFCURVE",
"282 1434 CURVE SMOOTH",
"278 1446 OFFCURVE",
"273 1453 OFFCURVE",
"268 1456 CURVE",
"233 1467 OFFCURVE",
"212 1484 OFFCURVE",
"204 1508 CURVE",
"231 1543 OFFCURVE",
"257 1575 OFFCURVE",
"284 1604 CURVE",
"352 1604 LINE",
"312 1632 LINE",
"400 1717 OFFCURVE",
"500 1785 OFFCURVE",
"612 1836 CURVE",
"616 1832 LINE",
"652 1736 LINE",
"644 1693 OFFCURVE",
"648 1651 OFFCURVE",
"664 1610 CURVE SMOOTH",
"680 1569 OFFCURVE",
"688 1547 OFFCURVE",
"688 1544 CURVE",
"932 1756 LINE",
"916 1752 LINE",
"894 1752 OFFCURVE",
"887 1763 OFFCURVE",
"896 1784 CURVE",
"896 1789 OFFCURVE",
"903 1789 OFFCURVE",
"916 1782 CURVE SMOOTH",
"929 1775 OFFCURVE",
"936 1774 OFFCURVE",
"936 1778 CURVE SMOOTH",
"936 1782 OFFCURVE",
"934 1787 OFFCURVE",
"930 1794 CURVE SMOOTH",
"922 1807 OFFCURVE",
"909 1823 OFFCURVE",
"920 1828 CURVE",
"947 1833 OFFCURVE",
"964 1839 OFFCURVE",
"972 1844 CURVE SMOOTH",
"980 1849 OFFCURVE",
"981 1856 OFFCURVE",
"976 1864 CURVE",
"971 1867 OFFCURVE",
"972 1885 OFFCURVE",
"980 1920 CURVE",
"995 1920 OFFCURVE",
"1009 1920 OFFCURVE",
"1024 1920 CURVE SMOOTH",
"1256 1920 OFFCURVE",
"1465 1848 OFFCURVE",
"1652 1704 CURVE",
"1617 1704 OFFCURVE",
"1599 1700 OFFCURVE",
"1596 1692 CURVE",
"1584 1708 LINE",
"1540 1648 LINE",
"1508 1627 OFFCURVE",
"1459 1679 OFFCURVE",
"1464 1684 CURVE SMOOTH",
"1467 1687 OFFCURVE",
"1481 1685 OFFCURVE",
"1508 1678 CURVE SMOOTH",
"1561 1665 OFFCURVE",
"1568 1701 OFFCURVE",
"1536 1714 CURVE SMOOTH",
"1520 1721 OFFCURVE",
"1502 1727 OFFCURVE",
"1482 1732 CURVE SMOOTH",
"1462 1737 OFFCURVE",
"1451 1743 OFFCURVE",
"1448 1748 CURVE",
"1429 1769 OFFCURVE",
"1395 1767 OFFCURVE",
"1344 1740 CURVE",
"1269 1708 OFFCURVE",
"1193 1605 OFFCURVE",
"1204 1536 CURVE",
"1204 1549 OFFCURVE",
"1212 1552 OFFCURVE",
"1228 1544 CURVE",
"1264 1520 LINE",
"1283 1496 OFFCURVE",
"1297 1485 OFFCURVE",
"1308 1488 CURVE",
"1316 1488 OFFCURVE",
"1316 1499 OFFCURVE",
"1308 1520 CURVE",
"1404 1668 LINE",
"1372 1596 LINE",
"1359 1556 OFFCURVE",
"1365 1544 OFFCURVE",
"1392 1560 CURVE SMOOTH",
"1400 1565 OFFCURVE",
"1412 1568 OFFCURVE",
"1428 1568 CURVE",
"1441 1571 OFFCURVE",
"1444 1567 OFFCURVE",
"1436 1556 CURVE",
"1423 1545 OFFCURVE",
"1415 1539 OFFCURVE",
"1413 1537 CURVE SMOOTH",
"1384 1508 LINE",
"1384 1512 LINE",
"1368 1544 OFFCURVE",
"1360 1533 OFFCURVE",
"1344 1498 CURVE SMOOTH",
"1328 1463 OFFCURVE",
"1308 1441 OFFCURVE",
"1260 1452 CURVE",
"1249 1455 OFFCURVE",
"1243 1475 OFFCURVE",
"1240 1512 CURVE",
"1235 1496 OFFCURVE",
"1183 1447 OFFCURVE",
"1084 1364 CURVE",
"1129 1343 OFFCURVE",
"1117 1323 OFFCURVE",
"1048 1304 CURVE",
"1027 1299 OFFCURVE",
"1019 1287 OFFCURVE",
"1024 1268 CURVE",
"1035 1239 OFFCURVE",
"1057 1217 OFFCURVE",
"1092 1204 CURVE",
"1069 1195 OFFCURVE",
"1047 1171 OFFCURVE",
"1025 1130 CURVE SMOOTH",
"1003 1089 OFFCURVE",
"983 1059 OFFCURVE",
"964 1040 CURVE",
"937 1003 OFFCURVE",
"965 907 OFFCURVE",
"992 862 CURVE SMOOTH",
"1019 817 OFFCURVE",
"1120 809 OFFCURVE",
"1168 836 CURVE",
"1205 852 OFFCURVE",
"1225 813 OFFCURVE",
"1238 760 CURVE SMOOTH",
"1245 733 OFFCURVE",
"1248 719 OFFCURVE",
"1248 716 CURVE",
"1261 695 OFFCURVE",
"1266 663 OFFCURVE",
"1262 620 CURVE SMOOTH",
"1258 577 OFFCURVE",
"1263 545 OFFCURVE",
"1278 524 CURVE SMOOTH",
"1293 503 OFFCURVE",
"1307 448 OFFCURVE",
"1320 360 CURVE SMOOTH",
"1331 296 OFFCURVE",
"1459 389 OFFCURVE",
"1464 448 CURVE",
"1467 467 OFFCURVE",
"1483 493 OFFCURVE",
"1512 526 CURVE SMOOTH",
"1541 559 OFFCURVE",
"1555 585 OFFCURVE",
"1552 604 CURVE",
"1552 716 OFFCURVE",
"1553 719 OFFCURVE",
"1644 820 CURVE",
"1660 836 OFFCURVE",
"1645 867 OFFCURVE",
"1600 912 CURVE",
"1589 917 OFFCURVE",
"1589 919 OFFCURVE",
"1600 916 CURVE SMOOTH",
"1621 911 OFFCURVE",
"1647 923 OFFCURVE",
"1682 944 CURVE SMOOTH",
"1699 955 OFFCURVE",
"1711 960 OFFCURVE",
"1716 960 CURVE",
"1753 973 OFFCURVE",
"1764 999 OFFCURVE",
"1748 1036 CURVE",
"1724 1068 LINE",
"1709 1053 OFFCURVE",
"1679 1079 OFFCURVE",
"1666 1098 CURVE",
"1659 1107 OFFCURVE",
"1655 1114 OFFCURVE",
"1654 1118 CURVE SMOOTH",
"1653 1122 OFFCURVE",
"1651 1125 OFFCURVE",
"1648 1128 CURVE",
"1824 1064 LINE",
"1897 1053 OFFCURVE",
"1935 944 OFFCURVE",
"1940 905 CURVE SMOOTH",
"1943 886 OFFCURVE",
"1945 873 OFFCURVE",
"1948 868 CURVE",
"2044 980 LINE",
"2047 945 OFFCURVE",
"2048 917 OFFCURVE",
"2048 896 CURVE SMOOTH",
"2048 331 OFFCURVE",
"1589 -128 OFFCURVE",
"1024 -128 CURVE SMOOTH",
"459 -128 OFFCURVE",
"0 331 OFFCURVE",
"0 896 CURVE SMOOTH",
"0 933 OFFCURVE",
"3 977 OFFCURVE",
"8 1028 CURVE",
"12 1024 LINE",
"-9 993 OFFCURVE",
"61 973 OFFCURVE",
"88 968 CURVE",
"101 965 OFFCURVE",
"115 962 OFFCURVE",
"130 958 CURVE SMOOTH",
"145 954 OFFCURVE",
"155 952 OFFCURVE",
"160 952 CURVE",
"173 947 OFFCURVE",
"189 934 OFFCURVE",
"208 914 CURVE SMOOTH",
"227 894 OFFCURVE",
"240 883 OFFCURVE",
"248 880 CURVE",
"277 875 OFFCURVE",
"297 868 OFFCURVE",
"306 860 CURVE SMOOTH",
"325 844 OFFCURVE",
"319 836 OFFCURVE",
"306 804 CURVE SMOOTH",
"299 788 OFFCURVE",
"296 775 OFFCURVE",
"296 764 CURVE",
"291 724 OFFCURVE",
"316 672 OFFCURVE",
"372 608 CURVE SMOOTH",
"428 544 OFFCURVE",
"455 491 OFFCURVE",
"452 448 CURVE SMOOTH",
"447 315 OFFCURVE",
"479 167 OFFCURVE",
"596 92 CURVE",
"596 119 OFFCURVE",
"584 180 OFFCURVE",
"560 276 CURVE",
"555 303 OFFCURVE",
"576 324 OFFCURVE",
"608 324 CURVE SMOOTH",
"619 324 OFFCURVE",
"618 332 OFFCURVE",
"606 348 CURVE SMOOTH",
"594 364 OFFCURVE",
"597 372 OFFCURVE",
"616 372 CURVE"
);
}
);
width = 2048;
}
);
unicode = E013;
},
{
glyphname = uniE014;
layers = (
{
layerId = "8F42D1CE-E3A3-4C93-A330-F9A6EBA349AF";
name = Regular;
paths = (
{
closed = 1;
nodes = (
"1984 420 LINE",
"1976 420 LINE",
"1100 -116 LINE",
"1004 -116 LINE",
"112 424 LINE",
"112 432 LINE",
"64 428 LINE",
"64 1796 LINE",
"192 1860 LINE",
"192 580 LINE",
"1048 144 LINE",
"1864 556 LINE",
"1864 1852 LINE",
"1984 1788 LINE"
);
},
{
closed = 1;
nodes = (
"1004 284 LINE",
"320 640 LINE",
"320 1868 LINE",
"1004 1472 LINE"
);
},
{
closed = 1;
nodes = (
"1728 640 LINE",
"1100 284 LINE",
"1100 1472 LINE",
"1728 1856 LINE"
);
}
);
width = 2048;
}
);
unicode = E014;
},
{
glyphname = uniE015;
layers = (
{
layerId = "8F42D1CE-E3A3-4C93-A330-F9A6EBA349AF";
name = Regular;
paths = (
{
closed = 1;
nodes = (
"1856 1408 LINE",
"1856 64 LINE",
"1704 64 LINE",
"1540 392 LINE",
"1540 1088 LINE",
"684 1088 LINE",
"692 1064 LINE SMOOTH",
"735 944 OFFCURVE",
"779 823 OFFCURVE",
"824 700 CURVE",
"708 584 LINE",
"40 1252 LINE",
"708 1920 LINE",
"824 1804 LINE",
"692 1472 LINE",
"684 1408 LINE"
);
}
);
width = 2048;
}
);
unicode = E015;
},
{
glyphname = uniE016;
layers = (
{
layerId = "8F42D1CE-E3A3-4C93-A330-F9A6EBA349AF";
name = Regular;
paths = (
{
closed = 1;
nodes = (
"1664 1280 LINE",
"1472 1280 LINE",
"1472 1472 LINE",
"1344 1472 LINE",
"1344 1280 LINE",
"1152 1280 LINE",
"1152 1152 LINE",
"1344 1152 LINE",
"1344 960 LINE",
"1472 960 LINE",
"1472 1152 LINE",
"1664 1152 LINE"
);
},
{
closed = 1;
nodes = (
"1812 1444 OFFCURVE",
"1856 1337 OFFCURVE",
"1856 1212 CURVE SMOOTH",
"1856 961 OFFCURVE",
"1655 760 OFFCURVE",
"1404 760 CURVE SMOOTH",
"1153 760 OFFCURVE",
"952 961 OFFCURVE",
"952 1212 CURVE SMOOTH",
"952 1463 OFFCURVE",
"1153 1664 OFFCURVE",
"1404 1664 CURVE SMOOTH",
"1529 1664 OFFCURVE",
"1636 1620 OFFCURVE",
"1724 1532 CURVE SMOOTH"
);
},
{
closed = 1;
nodes = (
"1461 632 OFFCURVE",
"1499 636 OFFCURVE",
"1536 644 CURVE",
"1536 -128 LINE",
"1024 256 LINE",
"516 -128 LINE",
"516 820 LINE",
"512 820 LINE",
"512 1792 LINE",
"624 1920 LINE",
"1408 1920 LINE",
"1536 1808 LINE",
"1536 1784 LINE",
"1499 1792 OFFCURVE",
"1461 1796 OFFCURVE",
"1424 1796 CURVE SMOOTH",
"1104 1796 OFFCURVE",
"844 1536 OFFCURVE",
"844 1216 CURVE SMOOTH",
"844 896 OFFCURVE",
"1104 632 OFFCURVE",
"1424 632 CURVE SMOOTH"
);
}
);
width = 2048;
}
);
unicode = E016;
},
{
glyphname = uniE017;
layers = (
{
layerId = "8F42D1CE-E3A3-4C93-A330-F9A6EBA349AF";
name = Regular;
paths = (
{
closed = 1;
nodes = (
"516 820 LINE",
"512 820 LINE",
"512 1792 LINE",
"640 1920 LINE",
"1408 1920 LINE",
"1536 1792 LINE",
"1536 -128 LINE",
"1024 256 LINE",
"516 -128 LINE"
);
}
);
width = 2048;
}
);
unicode = E017;
},
{
glyphname = uniE018;
layers = (
{
layerId = "8F42D1CE-E3A3-4C93-A330-F9A6EBA349AF";
name = Regular;
paths = (
{
closed = 1;
nodes = (
"1664 64 LINE",
"1216 64 LINE",
"1216 640 LINE",
"896 640 LINE",
"896 64 LINE",
"448 64 LINE",
"448 1024 LINE",
"256 960 LINE",
"256 1088 LINE",
"1024 1600 LINE",
"1088 1600 LINE",
"1856 1088 LINE",
"1856 956 LINE",
"1664 1024 LINE"
);
}
);
width = 2048;
}
);
unicode = E018;
},
{
glyphname = uniE019;
layers = (
{
layerId = "8F42D1CE-E3A3-4C93-A330-F9A6EBA349AF";
name = Regular;
paths = (
{
closed = 1;
nodes = (
"1392 896 LINE",
"1340 956 LINE",
"872 1548 LINE",
"832 1516 LINE",
"1088 896 LINE",
"832 276 LINE",
"872 244 LINE",
"1340 836 LINE"
);
},
{
closed = 1;
nodes = (
"1948 1420 OFFCURVE",
"2048 1179 OFFCURVE",
"2048 896 CURVE SMOOTH",
"2048 331 OFFCURVE",
"1589 -128 OFFCURVE",
"1024 -128 CURVE SMOOTH",
"459 -128 OFFCURVE",
"0 331 OFFCURVE",
"0 896 CURVE SMOOTH",
"0 1461 OFFCURVE",
"459 1920 OFFCURVE",
"1024 1920 CURVE SMOOTH",
"1307 1920 OFFCURVE",
"1548 1820 OFFCURVE",
"1748 1620 CURVE SMOOTH"
);
}
);
width = 2048;
}
);
unicode = E019;
},
{
glyphname = uniE01A;
layers = (
{
layerId = "8F42D1CE-E3A3-4C93-A330-F9A6EBA349AF";
name = Regular;
paths = (
{
closed = 1;
nodes = (
"960 896 LINE",
"1216 1516 LINE",
"1176 1548 LINE",
"708 956 LINE",
"656 896 LINE",
"708 836 LINE",
"1176 244 LINE",
"1216 276 LINE"
);
},
{
closed = 1;
nodes = (
"1948 1420 OFFCURVE",
"2048 1179 OFFCURVE",
"2048 896 CURVE SMOOTH",
"2048 331 OFFCURVE",
"1589 -128 OFFCURVE",
"1024 -128 CURVE SMOOTH",
"459 -128 OFFCURVE",
"0 331 OFFCURVE",
"0 896 CURVE SMOOTH",
"0 1461 OFFCURVE",
"459 1920 OFFCURVE",
"1024 1920 CURVE SMOOTH",
"1307 1920 OFFCURVE",
"1548 1820 OFFCURVE",
"1748 1620 CURVE SMOOTH"
);
}
);
width = 2048;
}
);
unicode = E01A;
},
{
glyphname = uniE01B;
layers = (
{
layerId = "8F42D1CE-E3A3-4C93-A330-F9A6EBA349AF";
name = Regular;
paths = (
{
closed = 1;
nodes = (
"460 1636 OFFCURVE",
"744 1920 OFFCURVE",
"1096 1920 CURVE SMOOTH",
"1448 1920 OFFCURVE",
"1732 1636 OFFCURVE",
"1732 1284 CURVE SMOOTH",
"1732 1156 OFFCURVE",
"1619 869 OFFCURVE",
"1510 640 CURVE SMOOTH",
"1401 411 OFFCURVE",
"1223 89 OFFCURVE",
"1164 -10 CURVE SMOOTH",
"1135 -59 OFFCURVE",
"1112 -99 OFFCURVE",
"1096 -128 CURVE",
"1093 -128 OFFCURVE",
"1040 -36 OFFCURVE",
"936 148 CURVE SMOOTH",
"728 516 OFFCURVE",
"460 1076 OFFCURVE",
"460 1284 CURVE SMOOTH"
);
},
{
closed = 1;
nodes = (
"1439 1091 OFFCURVE",
"1476 1181 OFFCURVE",
"1476 1286 CURVE SMOOTH",
"1476 1497 OFFCURVE",
"1305 1664 OFFCURVE",
"1094 1664 CURVE SMOOTH",
"883 1664 OFFCURVE",
"716 1497 OFFCURVE",
"716 1286 CURVE SMOOTH",
"716 1075 OFFCURVE",
"883 904 OFFCURVE",
"1094 904 CURVE SMOOTH",
"1199 904 OFFCURVE",
"1289 941 OFFCURVE",
"1364 1016 CURVE SMOOTH"
);
}
);
width = 2048;
}
);
unicode = E01B;
},
{
glyphname = uniE01C;
layers = (
{
layerId = "8F42D1CE-E3A3-4C93-A330-F9A6EBA349AF";
name = Regular;
paths = (
{
closed = 1;
nodes = (
"388 192 LINE",
"372 192 LINE",
"359 211 OFFCURVE",
"343 227 OFFCURVE",
"324 240 CURVE",
"324 256 LINE",
"196 256 LINE",
"196 240 LINE",
"177 227 OFFCURVE",
"161 211 OFFCURVE",
"148 192 CURVE",
"132 192 LINE",
"132 64 LINE",
"148 64 LINE",
"161 45 OFFCURVE",
"177 29 OFFCURVE",
"196 16 CURVE",
"196 0 LINE",
"324 0 LINE",
"324 16 LINE",
"343 29 OFFCURVE",
"359 45 OFFCURVE",
"372 64 CURVE",
"388 64 LINE"
);
},
{
closed = 1;
nodes = (
"2024 1400 LINE SMOOTH",
"2024 1299 OFFCURVE",
"1981 1133 OFFCURVE",
"1896 1048 CURVE SMOOTH",
"1757 909 OFFCURVE",
"1547 865 OFFCURVE",
"1376 924 CURVE",
"988 540 LINE",
"852 400 LINE",
"384 -64 LINE",
"309 -144 OFFCURVE",
"187 -139 OFFCURVE",
"112 -64 CURVE SMOOTH",
"52 -8 LINE SMOOTH",
"15 29 OFFCURVE",
"-4 75 OFFCURVE",
"-4 128 CURVE SMOOTH",
"-4 181 OFFCURVE",
"15 227 OFFCURVE",
"52 264 CURVE SMOOTH",
"406 618 LINE SMOOTH",
"642 854 OFFCURVE",
"771 984 OFFCURVE",
"792 1008 CURVE",
"1044 1256 LINE",
"985 1432 OFFCURVE",
"1029 1637 OFFCURVE",
"1168 1776 CURVE SMOOTH",
"1253 1861 OFFCURVE",
"1443 1903 OFFCURVE",
"1510 1906 CURVE SMOOTH",
"1543 1907 OFFCURVE",
"1572 1907 OFFCURVE",
"1596 1906 CURVE SMOOTH",
"1644 1903 OFFCURVE",
"1657 1873 OFFCURVE",
"1620 1836 CURVE SMOOTH",
"1436 1648 LINE SMOOTH",
"1417 1629 OFFCURVE",
"1408 1607 OFFCURVE",
"1408 1580 CURVE SMOOTH",
"1408 1553 OFFCURVE",
"1417 1529 OFFCURVE",
"1436 1508 CURVE",
"1628 1316 LINE SMOOTH",
"1647 1297 OFFCURVE",
"1669 1288 OFFCURVE",
"1696 1288 CURVE SMOOTH",
"1723 1288 OFFCURVE",
"1745 1297 OFFCURVE",
"1764 1316 CURVE SMOOTH",
"1952 1504 LINE SMOOTH",
"1989 1541 OFFCURVE",
"2024 1529 OFFCURVE",
"2024 1476 CURVE SMOOTH"
);
}
);
width = 2048;
}
);
unicode = E01C;
},
{
glyphname = uniE01D;
layers = (
{
layerId = "8F42D1CE-E3A3-4C93-A330-F9A6EBA349AF";
name = Regular;
paths = (
{
closed = 1;
nodes = (
"1984 576 LINE",
"1936 576 LINE",
"1827 525 OFFCURVE",
"1740 484 OFFCURVE",
"1676 452 CURVE",
"1656 444 LINE",
"2048 56 LINE",
"1864 -128 LINE",
"1476 264 LINE",
"1468 244 LINE",
"1396 95 OFFCURVE",
"1355 8 OFFCURVE",
"1344 -16 CURVE",
"1344 -64 LINE",
"1216 -64 LINE",
"1216 704 LINE",
"1984 704 LINE"
);
},
{
closed = 1;
nodes = (
"1344 1856 LINE",
"1344 1808 LINE",
"1392 1704 OFFCURVE",
"1433 1617 OFFCURVE",
"1468 1548 CURVE",
"1476 1528 LINE",
"1864 1920 LINE",
"2048 1736 LINE",
"1656 1348 LINE",
"1676 1340 LINE",
"1825 1268 OFFCURVE",
"1912 1227 OFFCURVE",
"1936 1216 CURVE",
"1984 1216 LINE",
"1984 1088 LINE",
"1216 1088 LINE",
"1216 1856 LINE"
);
},
{
closed = 1;
nodes = (
"64 704 LINE",
"832 704 LINE",
"832 -64 LINE",
"704 -64 LINE",
"704 -16 LINE",
"693 8 OFFCURVE",
"652 95 OFFCURVE",
"580 244 CURVE",
"572 264 LINE",
"184 -128 LINE",
"0 56 LINE",
"392 444 LINE",
"372 452 LINE",
"308 484 OFFCURVE",
"221 525 OFFCURVE",
"112 576 CURVE",
"64 576 LINE"
);
},
{
closed = 1;
nodes = (
"832 1856 LINE",
"832 1088 LINE",
"64 1088 LINE",
"64 1216 LINE",
"112 1216 LINE",
"123 1221 OFFCURVE",
"159 1238 OFFCURVE",
"220 1266 CURVE SMOOTH",
"281 1294 OFFCURVE",
"332 1319 OFFCURVE",
"372 1340 CURVE",
"392 1348 LINE",
"0 1736 LINE",
"184 1920 LINE",
"572 1528 LINE",
"580 1548 LINE",
"615 1617 OFFCURVE",
"656 1704 OFFCURVE",
"704 1808 CURVE",
"704 1856 LINE"
);
}
);
width = 2048;
}
);
unicode = E01D;
},
{
glyphname = uniE01E;
layers = (
{
layerId = "8F42D1CE-E3A3-4C93-A330-F9A6EBA349AF";
name = Regular;
paths = (
{
closed = 1;
nodes = (
"1984 576 LINE",
"1936 576 LINE",
"1827 525 OFFCURVE",
"1740 484 OFFCURVE",
"1676 452 CURVE",
"1656 444 LINE",
"2048 56 LINE",
"1864 -128 LINE",
"1476 264 LINE",
"1468 244 LINE",
"1396 95 OFFCURVE",
"1355 8 OFFCURVE",
"1344 -16 CURVE",
"1344 -64 LINE",
"1216 -64 LINE",
"1216 704 LINE",
"1984 704 LINE"
);
},
{
closed = 1;
nodes = (
"832 1856 LINE",
"832 1088 LINE",
"64 1088 LINE",
"64 1216 LINE",
"112 1216 LINE",
"123 1221 OFFCURVE",
"159 1238 OFFCURVE",
"220 1266 CURVE SMOOTH",
"281 1294 OFFCURVE",
"332 1319 OFFCURVE",
"372 1340 CURVE",
"392 1348 LINE",
"0 1736 LINE",
"184 1920 LINE",
"572 1528 LINE",
"580 1548 LINE",
"615 1617 OFFCURVE",
"656 1704 OFFCURVE",
"704 1808 CURVE",
"704 1856 LINE"
);
}
);
width = 2048;
}
);
unicode = E01E;
},
{
glyphname = uniE01F;
layers = (
{
layerId = "8F42D1CE-E3A3-4C93-A330-F9A6EBA349AF";
name = Regular;
paths = (
{
closed = 1;
nodes = (
"1344 1856 LINE",
"1344 1808 LINE",
"1395 1699 OFFCURVE",
"1436 1612 OFFCURVE",
"1468 1548 CURVE",
"1476 1528 LINE",
"1864 1920 LINE",
"2048 1736 LINE",
"1656 1348 LINE",
"1676 1340 LINE",
"1825 1268 OFFCURVE",
"1912 1227 OFFCURVE",
"1936 1216 CURVE",
"1984 1216 LINE",
"1984 1088 LINE",
"1216 1088 LINE",
"1216 1856 LINE"
);
},
{
closed = 1;
nodes = (
"64 576 LINE",
"64 704 LINE",
"832 704 LINE",
"832 -64 LINE",
"704 -64 LINE",
"704 -16 LINE",
"693 8 OFFCURVE",
"652 95 OFFCURVE",
"580 244 CURVE",
"572 264 LINE",
"184 -128 LINE",
"0 56 LINE",
"392 444 LINE",
"372 452 LINE",
"308 484 OFFCURVE",
"221 525 OFFCURVE",
"112 576 CURVE"
);
}
);
width = 2048;
}
);
unicode = E01F;
},
{
glyphname = uniE020;
layers = (
{
layerId = "8F42D1CE-E3A3-4C93-A330-F9A6EBA349AF";
name = Regular;
paths = (
{
closed = 1;
nodes = (
"1280 1920 LINE",
"2048 1920 LINE",
"2048 1152 LINE",
"1936 1152 LINE",
"1875 1305 OFFCURVE",
"1829 1414 OFFCURVE",
"1796 1480 CURVE",
"1408 1092 LINE",
"1224 1272 LINE",
"1612 1664 LINE",
"1280 1800 LINE"
);
},
{
closed = 1;
nodes = (
"2048 640 LINE",
"2048 -128 LINE",
"1280 -128 LINE",
"1280 0 LINE",
"1395 43 OFFCURVE",
"1497 85 OFFCURVE",
"1588 128 CURVE",
"1608 136 LINE",
"1216 528 LINE",
"1400 712 LINE",
"1788 320 LINE",
"1928 640 LINE"
);
},
{
closed = 1;
nodes = (
"0 1188 LINE",
"0 1920 LINE",
"740 1920 LINE",
"740 1800 LINE",
"468 1672 LINE",
"448 1664 LINE",
"840 1272 LINE",
"656 1092 LINE",
"268 1480 LINE",
"260 1460 LINE",
"215 1369 OFFCURVE",
"171 1279 OFFCURVE",
"128 1188 CURVE"
);
},
{
closed = 1;
nodes = (
"768 -128 LINE",
"8 -128 LINE",
"8 640 LINE",
"136 640 LINE",
"264 340 LINE",
"276 320 LINE",
"664 712 LINE",
"848 528 LINE",
"456 136 LINE",
"476 128 LINE",
"567 85 OFFCURVE",
"664 43 OFFCURVE",
"768 0 CURVE"
);
}
);
width = 2048;
}
);
unicode = E020;
},
{
glyphname = uniE021;
layers = (
{
layerId = "8F42D1CE-E3A3-4C93-A330-F9A6EBA349AF";
name = Regular;
paths = (
{
closed = 1;
nodes = (
"823 1416 OFFCURVE",
"657 1355 OFFCURVE",
"524 1232 CURVE",
"488 1268 LINE",
"632 1444 OFFCURVE",
"801 1532 OFFCURVE",
"996 1532 CURVE SMOOTH",
"1191 1532 OFFCURVE",
"1361 1444 OFFCURVE",
"1508 1268 CURVE",
"1472 1232 LINE",
"1336 1355 OFFCURVE",
"1185 1416 OFFCURVE",
"1020 1416 CURVE SMOOTH"
);
},
{
closed = 1;
nodes = (
"749 1736 OFFCURVE",
"512 1649 OFFCURVE",
"320 1476 CURVE",
"268 1528 LINE",
"455 1747 OFFCURVE",
"665 1900 OFFCURVE",
"996 1900 CURVE SMOOTH",
"1273 1900 OFFCURVE",
"1516 1776 OFFCURVE",
"1724 1528 CURVE",
"1676 1476 LINE",
"1481 1649 OFFCURVE",
"1267 1736 OFFCURVE",
"1032 1736 CURVE SMOOTH"
);
},
{
closed = 1;
nodes = (
"1016 1288 LINE SMOOTH",
"1045 1288 OFFCURVE",
"1063 1273 OFFCURVE",
"1068 1244 CURVE SMOOTH",
"1136 840 LINE",
"1540 664 LINE",
"1567 651 OFFCURVE",
"1579 629 OFFCURVE",
"1576 600 CURVE SMOOTH",
"1508 -128 LINE",
"984 -128 LINE",
"984 -16 LINE SMOOTH",
"984 8 OFFCURVE",
"972 29 OFFCURVE",
"948 48 CURVE SMOOTH",
"416 468 LINE",
"480 580 LINE",
"496 604 OFFCURVE",
"517 609 OFFCURVE",
"544 596 CURVE SMOOTH",
"796 464 LINE",
"817 448 OFFCURVE",
"840 463 OFFCURVE",
"840 484 CURVE",
"908 1244 LINE SMOOTH",
"911 1273 OFFCURVE",
"927 1288 OFFCURVE",
"956 1288 CURVE SMOOTH"
);
}
);
width = 2048;
}
);
unicode = E021;
},
{
glyphname = uniE022;
layers = (
{
layerId = "8F42D1CE-E3A3-4C93-A330-F9A6EBA349AF";
name = Regular;
paths = (
{
closed = 1;
nodes = (
"960 1088 LINE",
"760 1088 LINE",
"760 1380 LINE SMOOTH",
"760 1524 OFFCURVE",
"635 1640 OFFCURVE",
"480 1640 CURVE SMOOTH",
"325 1640 OFFCURVE",
"196 1524 OFFCURVE",
"196 1380 CURVE SMOOTH",
"196 1104 LINE",
"0 1104 LINE",
"0 1380 LINE SMOOTH",
"0 1625 OFFCURVE",
"214 1828 OFFCURVE",
"478 1828 CURVE SMOOTH",
"742 1828 OFFCURVE",
"960 1625 OFFCURVE",
"960 1380 CURVE SMOOTH"
);
},
{
closed = 1;
nodes = (
"1412 192 LINE",
"1412 640 LINE",
"1088 640 LINE",
"1088 192 LINE"
);
},
{
closed = 1;
nodes = (
"1792 1008 LINE",
"1920 896 LINE",
"1920 0 LINE",
"1804 -128 LINE",
"704 -128 LINE",
"576 0 LINE",
"576 896 LINE",
"704 1008 LINE"
);
}
);
width = 2048;
}
);
unicode = E022;
},
{
glyphname = uniE023;
layers = (
{
layerId = "8F42D1CE-E3A3-4C93-A330-F9A6EBA349AF";
name = Regular;
paths = (
{
closed = 1;
nodes = (
"1472 1088 LINE",
"1272 1088 LINE",
"1272 1380 LINE SMOOTH",
"1272 1524 OFFCURVE",
"1147 1640 OFFCURVE",
"992 1640 CURVE SMOOTH",
"837 1640 OFFCURVE",
"708 1524 OFFCURVE",
"708 1380 CURVE SMOOTH",
"708 1104 LINE",
"512 1104 LINE",
"512 1380 LINE SMOOTH",
"512 1625 OFFCURVE",
"726 1828 OFFCURVE",
"990 1828 CURVE SMOOTH",
"1254 1828 OFFCURVE",
"1472 1625 OFFCURVE",
"1472 1380 CURVE SMOOTH"
);
},
{
closed = 1;
nodes = (
"1156 192 LINE",
"1156 640 LINE",
"832 640 LINE",
"832 192 LINE"
);
},
{
closed = 1;
nodes = (
"1536 1008 LINE",
"1664 896 LINE",
"1664 -16 LINE",
"1548 -128 LINE",
"436 -128 LINE",
"320 -16 LINE",
"320 896 LINE",
"448 1008 LINE"
);
}
);
width = 2048;
}
);
unicode = E023;
},
{
glyphname = uniE024;
layers = (
{
layerId = "8F42D1CE-E3A3-4C93-A330-F9A6EBA349AF";
name = Regular;
paths = (
{
closed = 1;
nodes = (
"1408 512 LINE",
"1776 512 LINE",
"1776 128 LINE",
"1408 128 LINE"
);
},
{
closed = 1;
nodes = (
"832 512 LINE",
"1204 512 LINE",
"1204 128 LINE",
"832 128 LINE"
);
},
{
closed = 1;
nodes = (
"256 512 LINE",
"632 512 LINE",
"632 128 LINE",
"256 128 LINE"
);
},
{
closed = 1;
nodes = (
"1408 1084 LINE",
"1776 1084 LINE",
"1776 708 LINE",
"1408 708 LINE"
);
},
{
closed = 1;
nodes = (
"1408 1664 LINE",
"1776 1664 LINE",
"1776 1288 LINE",
"1408 1288 LINE"
);
},
{
closed = 1;
nodes = (
"832 1084 LINE",
"1204 1084 LINE",
"1204 708 LINE",
"832 708 LINE"
);
},
{
closed = 1;
nodes = (
"256 1084 LINE",
"632 1084 LINE",
"632 708 LINE",
"256 708 LINE"
);
},
{
closed = 1;
nodes = (
"832 1664 LINE",
"1204 1664 LINE",
"1204 1288 LINE",
"832 1288 LINE"
);
},
{
closed = 1;
nodes = (
"256 1664 LINE",
"632 1664 LINE",
"632 1288 LINE",
"256 1288 LINE"
);
}
);
width = 2048;
}
);
unicode = E024;
},
{
glyphname = uniE025;
layers = (
{
layerId = "8F42D1CE-E3A3-4C93-A330-F9A6EBA349AF";
name = Regular;
paths = (
{
closed = 1;
nodes = (
"1728 768 LINE",
"1940 768 LINE",
"2048 660 LINE",
"1620 128 LINE",
"1516 128 LINE",
"1088 660 LINE",
"1196 768 LINE",
"1408 768 LINE",
"1408 840 LINE SMOOTH",
"1408 1107 OFFCURVE",
"1195 1320 OFFCURVE",
"928 1320 CURVE SMOOTH",
"661 1320 OFFCURVE",
"448 1107 OFFCURVE",
"448 840 CURVE SMOOTH",
"448 128 LINE",
"128 128 LINE",
"128 840 LINE SMOOTH",
"128 1283 OFFCURVE",
"485 1640 OFFCURVE",
"928 1640 CURVE SMOOTH",
"1371 1640 OFFCURVE",
"1728 1283 OFFCURVE",
"1728 840 CURVE SMOOTH"
);
}
);
width = 2048;
}
);
unicode = E025;
},
{
glyphname = uniE026;
layers = (
{
layerId = "8F42D1CE-E3A3-4C93-A330-F9A6EBA349AF";
name = Regular;
paths = (
{
closed = 1;
nodes = (
"320 840 LINE SMOOTH",
"320 1283 OFFCURVE",
"677 1640 OFFCURVE",
"1120 1640 CURVE SMOOTH",
"1563 1640 OFFCURVE",
"1920 1283 OFFCURVE",
"1920 840 CURVE SMOOTH",
"1920 128 LINE",
"1600 128 LINE",
"1600 840 LINE SMOOTH",
"1600 1107 OFFCURVE",
"1387 1320 OFFCURVE",
"1120 1320 CURVE SMOOTH",
"853 1320 OFFCURVE",
"640 1107 OFFCURVE",
"640 840 CURVE SMOOTH",
"640 768 LINE",
"852 768 LINE",
"960 660 LINE",
"532 128 LINE",
"428 128 LINE",
"0 660 LINE",
"108 768 LINE",
"320 768 LINE"
);
}
);
width = 2048;
}
);
unicode = E026;
},
{
glyphname = uniE027;
layers = (
{
layerId = "8F42D1CE-E3A3-4C93-A330-F9A6EBA349AF";
name = Regular;
paths = (
{
closed = 1;
nodes = (
"1536 1472 LINE",
"448 1472 LINE",
"448 1280 LINE",
"1536 1280 LINE"
);
},
{
closed = 1;
nodes = (
"1536 1088 LINE",
"448 1088 LINE",
"448 896 LINE",
"1536 896 LINE"
);
},
{
closed = 1;
nodes = (
"1536 704 LINE",
"448 704 LINE",
"448 512 LINE",
"1536 512 LINE"
);
},
{
closed = 1;
nodes = (
"1088 320 LINE",
"448 320 LINE",
"448 128 LINE",
"1088 128 LINE"
);
},
{
closed = 1;
nodes = (
"1856 1568 LINE",
"1856 0 LINE",
"1728 -128 LINE",
"328 -128 LINE",
"192 0 LINE",
"192 1792 LINE",
"320 1920 LINE",
"1524 1920 LINE"
);
}
);
width = 2048;
}
);
unicode = E027;
},
{
glyphname = uniE028;
layers = (
{
layerId = "8F42D1CE-E3A3-4C93-A330-F9A6EBA349AF";
name = Regular;
paths = (
{
closed = 1;
nodes = (
"1412 0 LINE",
"588 0 LINE",
"488 100 LINE",
"384 1328 LINE",
"1620 1328 LINE",
"1516 104 LINE",
"1516 100 LINE"
);
},
{
closed = 1;
nodes = (
"1620 1504 LINE",
"400 1504 LINE",
"400 1644 LINE",
"488 1728 LINE",
"832 1728 LINE",
"832 1792 LINE",
"1208 1792 LINE",
"1208 1728 LINE",
"1516 1728 LINE",
"1620 1644 LINE"
);
}
);
width = 2048;
}
);
unicode = E028;
},
{
glyphname = uniE029;
layers = (
{
layerId = "8F42D1CE-E3A3-4C93-A330-F9A6EBA349AF";
name = Regular;
paths = (
{
closed = 1;
nodes = (
"859 996 OFFCURVE",
"984 888 OFFCURVE",
"984 672 CURVE SMOOTH",
"984 453 OFFCURVE",
"802 324 OFFCURVE",
"506 324 CURVE SMOOTH",
"210 324 OFFCURVE",
"0 508 OFFCURVE",
"0 780 CURVE SMOOTH",
"0 1052 OFFCURVE",
"183 1219 OFFCURVE",
"428 1288 CURVE SMOOTH",
"551 1323 OFFCURVE",
"692 1341 OFFCURVE",
"852 1344 CURVE",
"852 1280 LINE",
"463 1253 OFFCURVE",
"217 1052 OFFCURVE",
"228 780 CURVE",
"295 924 OFFCURVE",
"421 996 OFFCURVE",
"608 996 CURVE SMOOTH"
);
},
{
closed = 1;
nodes = (
"1916 996 OFFCURVE",
"2040 888 OFFCURVE",
"2040 672 CURVE SMOOTH",
"2040 453 OFFCURVE",
"1851 320 OFFCURVE",
"1584 320 CURVE SMOOTH",
"1259 320 OFFCURVE",
"1060 509 OFFCURVE",
"1060 778 CURVE SMOOTH",
"1060 1047 OFFCURVE",
"1243 1219 OFFCURVE",
"1488 1288 CURVE SMOOTH",
"1611 1323 OFFCURVE",
"1751 1341 OFFCURVE",
"1908 1344 CURVE",
"1908 1276 LINE",
"1524 1255 OFFCURVE",
"1277 1052 OFFCURVE",
"1288 780 CURVE",
"1352 924 OFFCURVE",
"1479 996 OFFCURVE",
"1668 996 CURVE SMOOTH"
);
}
);
width = 2048;
}
);
unicode = E029;
},
{
glyphname = uniE02A;
layers = (
{
layerId = "8F42D1CE-E3A3-4C93-A330-F9A6EBA349AF";
name = Regular;
paths = (
{
closed = 1;
nodes = (
"64 320 LINE",
"384 320 LINE",
"384 0 LINE",
"64 0 LINE"
);
},
{
closed = 1;
nodes = (
"652 320 LINE",
"2048 320 LINE",
"2048 4 LINE",
"652 4 LINE"
);
},
{
closed = 1;
nodes = (
"64 1728 LINE",
"384 1728 LINE",
"384 1408 LINE",
"64 1408 LINE"
);
},
{
closed = 1;
nodes = (
"652 1728 LINE",
"2048 1728 LINE",
"2048 1412 LINE",
"652 1412 LINE"
);
},
{
closed = 1;
nodes = (
"64 1024 LINE",
"384 1024 LINE",
"384 704 LINE",
"64 704 LINE"
);
},
{
closed = 1;
nodes = (
"652 1024 LINE",
"2048 1024 LINE",
"2048 708 LINE",
"652 708 LINE"
);
}
);
width = 2048;
}
);
unicode = E02A;
},
{
glyphname = uniE02B;
layers = (
{
layerId = "8F42D1CE-E3A3-4C93-A330-F9A6EBA349AF";
name = Regular;
paths = (
{
closed = 1;
nodes = (
"2040 832 LINE",
"2040 331 OFFCURVE",
"1653 -64 OFFCURVE",
"1152 -64 CURVE",
"1152 832 LINE"
);
},
{
closed = 1;
nodes = (
"443 1831 OFFCURVE",
"657 1920 OFFCURVE",
"908 1920 CURVE SMOOTH",
"1409 1920 OFFCURVE",
"1816 1525 OFFCURVE",
"1816 1024 CURVE",
"960 1024 LINE",
"960 104 LINE",
"453 104 OFFCURVE",
"0 515 OFFCURVE",
"0 1014 CURVE SMOOTH",
"0 1263 OFFCURVE",
"89 1477 OFFCURVE",
"266 1654 CURVE SMOOTH"
);
}
);
width = 2048;
}
);
unicode = E02B;
},
{
glyphname = uniE02C;
layers = (
{
layerId = "8F42D1CE-E3A3-4C93-A330-F9A6EBA349AF";
name = Regular;
paths = (
{
closed = 1;
nodes = (
"1536 1088 LINE",
"1344 1088 LINE",
"1344 652 LINE",
"1188 448 LINE",
"948 448 LINE",
"948 128 LINE",
"1540 128 LINE",
"1536 1048 LINE"
);
},
{
closed = 1;
nodes = (
"960 1088 LINE",
"960 640 LINE",
"1152 640 LINE",
"1152 1088 LINE"
);
},
{
closed = 1;
nodes = (
"576 1600 LINE",
"576 640 LINE",
"768 640 LINE",
"768 1120 LINE",
"900 1280 LINE",
"1152 1280 LINE",
"1152 1600 LINE"
);
},
{
closed = 1;
nodes = (
"768 448 LINE",
"540 448 LINE",
"384 652 LINE",
"384 1624 LINE",
"540 1780 LINE",
"1188 1780 LINE",
"1344 1620 LINE",
"1344 1280 LINE",
"1580 1280 LINE",
"1728 1128 LINE",
"1728 112 LINE",
"1564 -60 LINE",
"960 -60 LINE",
"768 112 LINE"
);
}
);
width = 2048;
}
);
unicode = E02C;
},
{
glyphname = uniE02D;
layers = (
{
layerId = "8F42D1CE-E3A3-4C93-A330-F9A6EBA349AF";
name = Regular;
paths = (
{
closed = 1;
nodes = (
"1260 1516 LINE",
"1184 1600 LINE",
"864 1600 LINE",
"788 1516 LINE",
"944 640 LINE",
"1104 640 LINE"
);
},
{
closed = 1;
nodes = (
"1168 245 OFFCURVE",
"1184 282 OFFCURVE",
"1184 326 CURVE SMOOTH",
"1184 414 OFFCURVE",
"1109 484 OFFCURVE",
"1024 484 CURVE SMOOTH",
"939 484 OFFCURVE",
"864 414 OFFCURVE",
"864 326 CURVE SMOOTH",
"864 238 OFFCURVE",
"939 168 OFFCURVE",
"1024 168 CURVE SMOOTH",
"1067 168 OFFCURVE",
"1104 183 OFFCURVE",
"1136 214 CURVE SMOOTH"
);
},
{
closed = 1;
nodes = (
"1948 1420 OFFCURVE",
"2048 1179 OFFCURVE",
"2048 896 CURVE SMOOTH",
"2048 331 OFFCURVE",
"1589 -128 OFFCURVE",
"1024 -128 CURVE SMOOTH",
"459 -128 OFFCURVE",
"0 331 OFFCURVE",
"0 896 CURVE SMOOTH",
"0 1461 OFFCURVE",
"459 1920 OFFCURVE",
"1024 1920 CURVE SMOOTH",
"1307 1920 OFFCURVE",
"1548 1820 OFFCURVE",
"1748 1620 CURVE SMOOTH"
);
}
);
width = 2048;
}
);
unicode = E02D;
},
{
glyphname = uniE02E;
layers = (
{
layerId = "8F42D1CE-E3A3-4C93-A330-F9A6EBA349AF";
name = Regular;
paths = (
{
closed = 1;
nodes = (
"896 1600 LINE",
"896 640 LINE",
"1600 640 LINE",
"1600 784 LINE",
"1136 896 LINE",
"1024 1600 LINE"
);
},
{
closed = 1;
nodes = (
"1948 1420 OFFCURVE",
"2048 1179 OFFCURVE",
"2048 896 CURVE SMOOTH",
"2048 331 OFFCURVE",
"1589 -128 OFFCURVE",
"1024 -128 CURVE SMOOTH",
"459 -128 OFFCURVE",
"0 331 OFFCURVE",
"0 896 CURVE SMOOTH",
"0 1461 OFFCURVE",
"459 1920 OFFCURVE",
"1024 1920 CURVE SMOOTH",
"1307 1920 OFFCURVE",
"1548 1820 OFFCURVE",
"1748 1620 CURVE SMOOTH"
);
}
);
width = 2048;
}
);
unicode = E02E;
},
{
glyphname = uniE02F;
layers = (
{
layerId = "8F42D1CE-E3A3-4C93-A330-F9A6EBA349AF";
name = Regular;
paths = (
{
closed = 1;
nodes = (
"320 640 LINE",
"576 640 LINE",
"576 384 LINE",
"320 384 LINE"
);
},
{
closed = 1;
nodes = (
"320 960 LINE",
"576 960 LINE",
"576 704 LINE",
"320 704 LINE"
);
},
{
closed = 1;
nodes = (
"704 640 LINE",
"960 640 LINE",
"960 384 LINE",
"704 384 LINE"
);
},
{
closed = 1;
nodes = (
"704 960 LINE",
"960 960 LINE",
"960 704 LINE",
"704 704 LINE"
);
},
{
closed = 1;
nodes = (
"704 1280 LINE",
"960 1280 LINE",
"960 1024 LINE",
"704 1024 LINE"
);
},
{
closed = 1;
nodes = (
"1088 640 LINE",
"1344 640 LINE",
"1344 384 LINE",
"1088 384 LINE"
);
},
{
closed = 1;
nodes = (
"1088 960 LINE",
"1344 960 LINE",
"1344 704 LINE",
"1088 704 LINE"
);
},
{
closed = 1;
nodes = (
"1088 1280 LINE",
"1344 1280 LINE",
"1344 1024 LINE",
"1088 1024 LINE"
);
},
{
closed = 1;
nodes = (
"1472 640 LINE",
"1728 640 LINE",
"1728 384 LINE",
"1472 384 LINE"
);
},
{
closed = 1;
nodes = (
"1472 960 LINE",
"1728 960 LINE",
"1728 704 LINE",
"1472 704 LINE"
);
},
{
closed = 1;
nodes = (
"1472 1280 LINE",
"1728 1280 LINE",
"1728 1024 LINE",
"1472 1024 LINE"
);
},
{
closed = 1;
nodes = (
"1856 256 LINE",
"1856 1408 LINE",
"192 1408 LINE",
"192 256 LINE"
);
},
{
closed = 1;
nodes = (
"1920 64 LINE",
"128 64 LINE",
"0 192 LINE",
"0 1664 LINE",
"128 1792 LINE",
"340 1792 LINE",
"408 1588 LINE",
"612 1588 LINE",
"680 1792 LINE",
"1364 1792 LINE",
"1432 1588 LINE",
"1636 1588 LINE",
"1704 1792 LINE",
"1920 1792 LINE",
"2044 1664 LINE",
"2044 192 LINE"
);
}
);
width = 2048;
}
);
unicode = E02F;
},
{
glyphname = uniE030;
layers = (
{
layerId = "8F42D1CE-E3A3-4C93-A330-F9A6EBA349AF";
name = Regular;
paths = (
{
closed = 1;
nodes = (
"384 1024 LINE",
"692 1024 LINE",
"692 716 LINE",
"384 716 LINE"
);
},
{
closed = 1;
nodes = (
"896 1024 LINE",
"1204 1024 LINE",
"1204 716 LINE",
"896 716 LINE"
);
},
{
closed = 1;
nodes = (
"1420 1024 LINE",
"1728 1024 LINE",
"1728 716 LINE",
"1420 716 LINE"
);
},
{
closed = 1;
nodes = (
"372 244 LINE",
"64 404 LINE",
"64 1308 LINE",
"372 1472 LINE",
"444 1400 LINE",
"256 1224 LINE",
"256 492 LINE",
"444 316 LINE"
);
},
{
closed = 1;
nodes = (
"1740 244 LINE",
"1668 316 LINE",
"1856 492 LINE",
"1856 1224 LINE",
"1668 1400 LINE",
"1740 1472 LINE",
"2048 1308 LINE",
"2048 404 LINE"
);
}
);
width = 2048;
}
);
unicode = E030;
},
{
glyphname = uniE031;
layers = (
{
layerId = "8F42D1CE-E3A3-4C93-A330-F9A6EBA349AF";
name = Regular;
paths = (
{
closed = 1;
nodes = (
"256 400 LINE",
"256 960 LINE",
"392 960 LINE",
"444 832 LINE",
"444 568 LINE",
"1392 568 LINE",
"1312 800 LINE",
"1380 868 LINE",
"1780 468 LINE",
"1380 68 LINE",
"1312 140 LINE",
"1388 384 LINE",
"1392 400 LINE"
);
},
{
closed = 1;
nodes = (
"1716 1536 LINE",
"1716 964 LINE",
"1600 964 LINE",
"1536 1088 LINE",
"1536 1344 LINE",
"580 1344 LINE",
"585 1323 OFFCURVE",
"612 1251 OFFCURVE",
"660 1128 CURVE",
"592 1056 LINE",
"192 1456 LINE",
"592 1856 LINE",
"660 1788 LINE",
"584 1552 LINE",
"580 1536 LINE"
);
}
);
width = 2048;
}
);
unicode = E031;
},
{
glyphname = uniE032;
layers = (
{
layerId = "8F42D1CE-E3A3-4C93-A330-F9A6EBA349AF";
name = Regular;
paths = (
{
closed = 1;
nodes = (
"1232 400 LINE",
"1024 500 LINE",
"1232 704 LINE",
"1332 500 LINE"
);
},
{
closed = 1;
nodes = (
"820 604 LINE",
"4 1424 LINE",
"4 1628 LINE",
"104 1728 LINE",
"308 1728 LINE",
"1128 912 LINE"
);
},
{
closed = 1;
nodes = (
"1856 64 LINE",
"1856 0 LINE",
"192 0 LINE",
"192 64 LINE",
"128 64 LINE",
"128 832 LINE",
"256 832 LINE",
"316 704 LINE",
"316 192 LINE",
"1728 192 LINE",
"1728 1536 LINE",
"1024 1536 LINE",
"896 1600 LINE",
"896 1728 LINE",
"1856 1728 LINE",
"1856 1664 LINE",
"1920 1664 LINE",
"1920 64 LINE"
);
}
);
width = 2048;
}
);
unicode = E032;
},
{
glyphname = uniE033;
layers = (
{
layerId = "8F42D1CE-E3A3-4C93-A330-F9A6EBA349AF";
name = Regular;
paths = (
{
closed = 1;
nodes = (
"1600 1728 LINE",
"384 1728 LINE",
"384 256 LINE",
"1600 256 LINE"
);
},
{
closed = 1;
nodes = (
"1152 192 LINE",
"832 192 LINE",
"832 0 LINE",
"1152 0 LINE"
);
},
{
closed = 1;
nodes = (
"1792 1792 LINE",
"1792 64 LINE",
"1664 -64 LINE",
"320 -64 LINE",
"192 64 LINE",
"192 1792 LINE",
"320 1920 LINE",
"1664 1920 LINE"
);
}
);
width = 2048;
}
);
unicode = E033;
},
{
glyphname = uniE034;
layers = (
{
layerId = "8F42D1CE-E3A3-4C93-A330-F9A6EBA349AF";
name = Regular;
paths = (
{
closed = 1;
nodes = (
"1472 1728 LINE",
"576 1728 LINE",
"576 256 LINE",
"1472 256 LINE"
);
},
{
closed = 1;
nodes = (
"1152 192 LINE",
"896 192 LINE",
"896 64 LINE",
"1152 64 LINE"
);
},
{
closed = 1;
nodes = (
"1664 1792 LINE",
"1664 64 LINE",
"1536 -64 LINE",
"512 -64 LINE",
"384 64 LINE",
"384 1792 LINE",
"512 1920 LINE",
"1552 1920 LINE"
);
}
);
width = 2048;
}
);
unicode = E034;
},
{
glyphname = uniE035;
layers = (
{
layerId = "8F42D1CE-E3A3-4C93-A330-F9A6EBA349AF";
name = Regular;
paths = (
{
closed = 1;
nodes = (
"1856 1600 LINE",
"192 1600 LINE",
"192 576 LINE",
"1856 576 LINE"
);
},
{
closed = 1;
nodes = (
"1336 256 LINE",
"1336 64 LINE",
"1792 -32 LINE",
"1792 -128 LINE",
"256 -128 LINE",
"256 -32 LINE",
"704 64 LINE",
"704 256 LINE",
"128 256 LINE",
"0 384 LINE",
"0 1664 LINE",
"128 1792 LINE",
"1920 1792 LINE",
"2048 1664 LINE",
"2048 384 LINE",
"1920 256 LINE"
);
}
);
width = 2048;
}
);
unicode = E035;
},
{
glyphname = uniE036;
layers = (
{
layerId = "8F42D1CE-E3A3-4C93-A330-F9A6EBA349AF";
name = Regular;
paths = (
{
closed = 1;
nodes = (
"1448 712 LINE",
"1644 56 LINE",
"1592 20 LINE",
"1024 400 LINE",
"452 20 LINE",
"400 56 LINE",
"596 712 LINE",
"48 1140 LINE",
"68 1200 LINE",
"760 1200 LINE",
"992 1872 LINE",
"1056 1872 LINE",
"1284 1200 LINE",
"1976 1200 LINE",
"2000 1140 LINE"
);
}
);
width = 2048;
}
);
unicode = E036;
},
{
glyphname = uniE037;
layers = (
{
layerId = "8F42D1CE-E3A3-4C93-A330-F9A6EBA349AF";
name = Regular;
paths = (
{
closed = 1;
nodes = (
"320 772 LINE",
"509 889 OFFCURVE",
"744 948 OFFCURVE",
"1024 948 CURVE SMOOTH",
"1304 948 OFFCURVE",
"1539 889 OFFCURVE",
"1728 772 CURVE",
"1792 44 LINE",
"1696 -64 LINE",
"352 -64 LINE",
"256 44 LINE",
"320 768 LINE"
);
},
{
closed = 1;
nodes = (
"820 1883 OFFCURVE",
"913 1920 OFFCURVE",
"1026 1920 CURVE SMOOTH",
"1253 1920 OFFCURVE",
"1408 1755 OFFCURVE",
"1408 1486 CURVE SMOOTH",
"1408 1217 OFFCURVE",
"1249 1052 OFFCURVE",
"1022 1052 CURVE SMOOTH",
"909 1052 OFFCURVE",
"816 1091 OFFCURVE",
"744 1168 CURVE",
"675 1248 OFFCURVE",
"640 1355 OFFCURVE",
"640 1488 CURVE SMOOTH",
"640 1621 OFFCURVE",
"676 1728 OFFCURVE",
"748 1808 CURVE SMOOTH"
);
}
);
width = 2048;
}
);
unicode = E037;
},
{
glyphname = uniE038;
layers = (
{
layerId = "8F42D1CE-E3A3-4C93-A330-F9A6EBA349AF";
name = Regular;
paths = (
{
closed = 1;
nodes = (
"1792 168 LINE",
"1772 -20 LINE",
"1676 -76 LINE",
"1152 832 LINE",
"1204 864 LINE SMOOTH",
"1417 987 OFFCURVE",
"1491 1259 OFFCURVE",
"1368 1472 CURVE SMOOTH",
"1245 1685 OFFCURVE",
"969 1763 OFFCURVE",
"756 1638 CURVE SMOOTH",
"543 1513 OFFCURVE",
"469 1242 OFFCURVE",
"592 1026 CURVE SMOOTH",
"653 918 OFFCURVE",
"744 848 OFFCURVE",
"864 816 CURVE",
"1004 548 LINE",
"808 600 LINE SMOOTH",
"451 696 OFFCURVE",
"236 1067 OFFCURVE",
"332 1424 CURVE SMOOTH",
"428 1781 OFFCURVE",
"794 1992 OFFCURVE",
"1154 1896 CURVE SMOOTH",
"1514 1800 OFFCURVE",
"1724 1433 OFFCURVE",
"1628 1076 CURVE SMOOTH",
"1596 959 OFFCURVE",
"1535 856 OFFCURVE",
"1444 768 CURVE"
);
}
);
width = 2048;
}
);
unicode = E038;
},
{
glyphname = uniE039;
layers = (
{
layerId = "8F42D1CE-E3A3-4C93-A330-F9A6EBA349AF";
name = Regular;
paths = (
{
closed = 1;
nodes = (
"704 704 LINE",
"704 512 LINE",
"0 512 LINE",
"0 704 LINE"
);
},
{
closed = 1;
nodes = (
"2016 236 LINE",
"1848 140 LINE",
"1372 972 LINE",
"1416 996 LINE",
"1412 1004 LINE",
"1599 1111 OFFCURVE",
"1659 1345 OFFCURVE",
"1552 1532 CURVE SMOOTH",
"1445 1719 OFFCURVE",
"1210 1783 OFFCURVE",
"1026 1676 CURVE SMOOTH",
"842 1569 OFFCURVE",
"777 1330 OFFCURVE",
"884 1146 CURVE SMOOTH",
"937 1054 OFFCURVE",
"1016 995 OFFCURVE",
"1120 968 CURVE",
"1240 732 LINE",
"1068 780 LINE SMOOTH",
"759 860 OFFCURVE",
"575 1183 OFFCURVE",
"658 1490 CURVE SMOOTH",
"741 1797 OFFCURVE",
"1059 1985 OFFCURVE",
"1368 1900 CURVE SMOOTH",
"1677 1815 OFFCURVE",
"1860 1497 OFFCURVE",
"1780 1188 CURVE SMOOTH",
"1753 1087 OFFCURVE",
"1700 999 OFFCURVE",
"1620 924 CURVE"
);
}
);
width = 2048;
}
);
unicode = E039;
},
{
glyphname = uniE03A;
layers = (
{
layerId = "8F42D1CE-E3A3-4C93-A330-F9A6EBA349AF";
name = Regular;
paths = (
{
closed = 1;
nodes = (
"448 704 LINE",
"704 704 LINE",
"704 512 LINE",
"448 512 LINE",
"448 256 LINE",
"256 256 LINE",
"256 512 LINE",
"0 512 LINE",
"0 704 LINE",
"256 704 LINE",
"256 960 LINE",
"448 960 LINE"
);
},
{
closed = 1;
nodes = (
"2016 236 LINE",
"1848 140 LINE",
"1372 972 LINE",
"1416 996 LINE",
"1412 1004 LINE",
"1599 1111 OFFCURVE",
"1659 1345 OFFCURVE",
"1552 1532 CURVE SMOOTH",
"1445 1719 OFFCURVE",
"1210 1783 OFFCURVE",
"1026 1676 CURVE SMOOTH",
"842 1569 OFFCURVE",
"777 1330 OFFCURVE",
"884 1146 CURVE SMOOTH",
"937 1054 OFFCURVE",
"1016 995 OFFCURVE",
"1120 968 CURVE",
"1240 732 LINE",
"1068 780 LINE SMOOTH",
"759 860 OFFCURVE",
"575 1183 OFFCURVE",
"658 1490 CURVE SMOOTH",
"741 1797 OFFCURVE",
"1059 1985 OFFCURVE",
"1368 1900 CURVE SMOOTH",
"1677 1815 OFFCURVE",
"1860 1497 OFFCURVE",
"1780 1188 CURVE SMOOTH",
"1753 1087 OFFCURVE",
"1700 999 OFFCURVE",
"1620 924 CURVE"
);
}
);
width = 2048;
}
);
unicode = E03A;
},
{
glyphname = uniE03B;
layers = (
{
layerId = "8F42D1CE-E3A3-4C93-A330-F9A6EBA349AF";
name = Regular;
paths = (
{
closed = 1;
nodes = (
"256 -128 LINE",
"0 -128 LINE",
"0 1920 LINE",
"144 1920 LINE",
"256 1796 LINE"
);
}
);
width = 2048;
}
);
unicode = E03B;
},
{
glyphname = uniE03C;
layers = (
{
layerId = "8F42D1CE-E3A3-4C93-A330-F9A6EBA349AF";
name = Regular;
paths = (
{
closed = 1;
nodes = (
"512 64 LINE",
"512 460 LINE",
"320 460 LINE",
"192 576 LINE",
"192 1408 LINE",
"320 1536 LINE",
"1664 1536 LINE",
"1792 1408 LINE",
"1792 576 LINE",
"1664 460 LINE",
"896 460 LINE",
"568 64 LINE"
);
}
);
width = 2048;
}
);
unicode = E03C;
},
{
glyphname = uniE03D;
layers = (
{
layerId = "8F42D1CE-E3A3-4C93-A330-F9A6EBA349AF";
name = Regular;
paths = (
{
closed = 1;
nodes = (
"1783 1704 OFFCURVE",
"2036 1453 OFFCURVE",
"2036 1146 CURVE SMOOTH",
"2036 993 OFFCURVE",
"1973 845 OFFCURVE",
"1846 702 CURVE SMOOTH",
"1719 559 OFFCURVE",
"1444 324 OFFCURVE",
"1020 -4 CURVE",
"593 324 OFFCURVE",
"317 559 OFFCURVE",
"190 702 CURVE SMOOTH",
"63 845 OFFCURVE",
"0 993 OFFCURVE",
"0 1146 CURVE SMOOTH",
"0 1453 OFFCURVE",
"257 1704 OFFCURVE",
"572 1704 CURVE SMOOTH",
"756 1704 OFFCURVE",
"905 1633 OFFCURVE",
"1020 1492 CURVE SMOOTH",
"1116 1368 LINE",
"1192 1428 LINE",
"1116 1588 LINE",
"1220 1665 OFFCURVE",
"1337 1704 OFFCURVE",
"1468 1704 CURVE SMOOTH"
);
}
);
width = 2048;
}
);
unicode = E03D;
},
{
glyphname = uniE03E;
layers = (
{
layerId = "8F42D1CE-E3A3-4C93-A330-F9A6EBA349AF";
name = Regular;
paths = (
{
closed = 1;
nodes = (
"1280 1592 LINE",
"1984 1592 LINE",
"1984 896 LINE",
"1844 896 LINE",
"1724 1160 LINE",
"1716 1176 LINE",
"1260 724 LINE",
"1092 892 LINE",
"1544 1344 LINE",
"1280 1472 LINE"
);
},
{
closed = 1;
nodes = (
"256 1408 LINE",
"256 256 LINE",
"1792 256 LINE",
"1792 640 LINE",
"1984 640 LINE",
"1984 128 LINE",
"1920 128 LINE",
"1920 64 LINE",
"128 64 LINE",
"128 128 LINE",
"76 128 LINE",
"76 1536 LINE",
"128 1536 LINE",
"128 1600 LINE",
"1024 1600 LINE",
"1024 1408 LINE"
);
}
);
width = 2048;
}
);
unicode = E03E;
},
{
glyphname = uniE03F;
layers = (
{
layerId = "8F42D1CE-E3A3-4C93-A330-F9A6EBA349AF";
name = Regular;
paths = (
{
closed = 1;
nodes = (
"1016 492 LINE",
"1836 1144 LINE",
"1788 1204 LINE",
"1016 848 LINE",
"248 1204 LINE",
"204 1144 LINE"
);
},
{
closed = 1;
nodes = (
"2032 256 LINE",
"1920 128 LINE",
"128 128 LINE",
"0 256 LINE",
"0 1408 LINE",
"128 1536 LINE",
"1920 1532 LINE",
"2032 1408 LINE"
);
}
);
width = 2048;
}
);
unicode = E03F;
},
{
glyphname = uniE040;
layers = (
{
layerId = "8F42D1CE-E3A3-4C93-A330-F9A6EBA349AF";
name = Regular;
paths = (
{
closed = 1;
nodes = (
"1421 685 OFFCURVE",
"1464 789 OFFCURVE",
"1464 912 CURVE SMOOTH",
"1464 1157 OFFCURVE",
"1266 1356 OFFCURVE",
"1018 1356 CURVE SMOOTH",
"770 1356 OFFCURVE",
"572 1157 OFFCURVE",
"572 912 CURVE SMOOTH",
"572 667 OFFCURVE",
"770 468 OFFCURVE",
"1018 468 CURVE SMOOTH",
"1142 468 OFFCURVE",
"1247 511 OFFCURVE",
"1334 598 CURVE SMOOTH"
);
},
{
closed = 1;
nodes = (
"1800 672 LINE",
"1740 528 LINE",
"1876 328 LINE",
"1600 56 LINE",
"1404 188 LINE",
"1256 128 LINE",
"1212 -128 LINE",
"824 -128 LINE",
"780 128 LINE",
"636 188 LINE",
"436 56 LINE",
"160 328 LINE",
"296 528 LINE",
"236 672 LINE",
"0 716 LINE",
"0 1108 LINE",
"236 1152 LINE",
"296 1296 LINE",
"160 1496 LINE",
"436 1768 LINE",
"636 1636 LINE",
"780 1696 LINE",
"824 1932 LINE",
"1212 1932 LINE",
"1256 1696 LINE",
"1404 1636 LINE",
"1600 1768 LINE",
"1876 1496 LINE",
"1740 1296 LINE",
"1800 1152 LINE",
"2036 1108 LINE",
"2036 716 LINE"
);
}
);
width = 2048;
}
);
unicode = E040;
},
{
glyphname = uniE041;
layers = (
{
layerId = "8F42D1CE-E3A3-4C93-A330-F9A6EBA349AF";
name = Regular;
paths = (
{
closed = 1;
nodes = (
"572 448 LINE",
"572 392 LINE",
"380 268 LINE",
"128 268 LINE",
"0 384 LINE",
"0 1600 LINE",
"128 1728 LINE",
"1896 1728 LINE",
"2048 1600 LINE",
"2048 384 LINE",
"1920 256 LINE",
"960 256 LINE",
"828 96 LINE",
"640 -64 LINE",
"572 4 LINE",
"696 260 LINE",
"896 448 LINE",
"1820 448 LINE",
"1860 488 LINE",
"1860 1508 LINE",
"1820 1548 LINE",
"228 1548 LINE",
"192 1508 LINE",
"192 488 LINE",
"228 448 LINE"
);
}
);
width = 2048;
}
);
unicode = E041;
},
{
glyphname = uniE042;
layers = (
{
layerId = "8F42D1CE-E3A3-4C93-A330-F9A6EBA349AF";
name = Regular;
paths = (
{
closed = 1;
nodes = (
"256 1476 LINE",
"256 324 LINE",
"64 324 LINE",
"64 1536 LINE",
"192 1664 LINE",
"1508 1664 LINE",
"1400 1476 LINE"
);
},
{
closed = 1;
nodes = (
"960 320 LINE",
"1856 320 LINE",
"1472 1024 LINE",
"1344 1024 LINE",
"1180 696 LINE",
"1028 428 LINE"
);
},
{
closed = 1;
nodes = (
"384 128 LINE",
"384 1216 LINE",
"512 1336 LINE",
"1920 1336 LINE",
"2044 1216 LINE",
"2048 128 LINE",
"1920 8 LINE",
"512 8 LINE"
);
},
{
closed = 1;
nodes = (
"640 320 LINE",
"960 320 LINE",
"800 604 LINE",
"720 464 LINE",
"704 428 LINE"
);
}
);
width = 2048;
}
);
unicode = E042;
},
{
glyphname = uniE043;
layers = (
{
layerId = "8F42D1CE-E3A3-4C93-A330-F9A6EBA349AF";
name = Regular;
paths = (
{
closed = 1;
nodes = (
"2036 1464 LINE",
"2036 188 LINE",
"1988 148 LINE",
"1544 708 LINE",
"1544 948 LINE",
"1988 1504 LINE"
);
},
{
closed = 1;
nodes = (
"1408 316 LINE",
"1280 192 LINE",
"128 192 LINE",
"8 316 LINE",
"8 1340 LINE",
"128 1468 LINE",
"1280 1468 LINE",
"1408 1340 LINE"
);
}
);
width = 2048;
}
);
unicode = E043;
},
{
glyphname = uniE044;
layers = (
{
layerId = "8F42D1CE-E3A3-4C93-A330-F9A6EBA349AF";
name = Regular;
paths = (
{
closed = 1;
nodes = (
"1313 605 OFFCURVE",
"1344 681 OFFCURVE",
"1344 770 CURVE SMOOTH",
"1344 949 OFFCURVE",
"1200 1088 OFFCURVE",
"1024 1088 CURVE SMOOTH",
"848 1088 OFFCURVE",
"704 949 OFFCURVE",
"704 770 CURVE SMOOTH",
"704 591 OFFCURVE",
"848 452 OFFCURVE",
"1024 452 CURVE SMOOTH",
"1112 452 OFFCURVE",
"1187 483 OFFCURVE",
"1250 544 CURVE SMOOTH"
);
},
{
closed = 1;
nodes = (
"2048 1216 LINE",
"2048 256 LINE",
"1920 128 LINE",
"128 128 LINE",
"0 256 LINE",
"0 1216 LINE",
"128 1344 LINE",
"448 1340 LINE",
"640 1600 LINE",
"1408 1600 LINE",
"1600 1344 LINE",
"1920 1344 LINE"
);
}
);
width = 2048;
}
);
unicode = E044;
},
{
glyphname = uniE045;
layers = (
{
layerId = "8F42D1CE-E3A3-4C93-A330-F9A6EBA349AF";
name = Regular;
paths = (
{
closed = 1;
nodes = (
"1216 960 LINE",
"1456 960 LINE",
"1435 1269 OFFCURVE",
"1180 1516 OFFCURVE",
"860 1516 CURVE SMOOTH",
"540 1516 OFFCURVE",
"268 1250 OFFCURVE",
"268 922 CURVE SMOOTH",
"268 594 OFFCURVE",
"539 324 OFFCURVE",
"864 324 CURVE",
"864 56 LINE",
"389 56 OFFCURVE",
"0 445 OFFCURVE",
"0 922 CURVE SMOOTH",
"0 1399 OFFCURVE",
"391 1784 OFFCURVE",
"860 1784 CURVE SMOOTH",
"1329 1784 OFFCURVE",
"1707 1419 OFFCURVE",
"1728 960 CURVE",
"1984 960 LINE",
"1984 900 LINE",
"2044 840 LINE",
"1644 340 LINE",
"1544 340 LINE",
"1144 840 LINE",
"1216 912 LINE"
);
}
);
width = 2048;
}
);
unicode = E045;
},
{
glyphname = uniE046;
layers = (
{
layerId = "8F42D1CE-E3A3-4C93-A330-F9A6EBA349AF";
name = Regular;
paths = (
{
closed = 1;
nodes = (
"2048 1304 LINE",
"1740 928 LINE",
"2048 552 LINE",
"2008 512 LINE",
"1632 820 LINE",
"1256 512 LINE",
"1216 552 LINE",
"1524 928 LINE",
"1216 1304 LINE",
"1256 1344 LINE",
"1632 1036 LINE",
"2008 1344 LINE"
);
},
{
closed = 1;
nodes = (
"0 576 LINE",
"0 1216 LINE",
"496 1216 LINE",
"944 1792 LINE",
"1024 1740 LINE",
"1024 52 LINE",
"944 0 LINE",
"496 576 LINE"
);
}
);
width = 2048;
}
);
unicode = E046;
},
{
glyphname = uniE047;
layers = (
{
layerId = "8F42D1CE-E3A3-4C93-A330-F9A6EBA349AF";
name = Regular;
paths = (
{
closed = 1;
nodes = (
"1024 1792 LINE",
"1024 0 LINE",
"944 0 LINE",
"496 576 LINE",
"0 576 LINE",
"0 1216 LINE",
"496 1216 LINE",
"944 1792 LINE"
);
},
{
closed = 1;
nodes = (
"1596 240 LINE",
"1740 421 OFFCURVE",
"1812 640 OFFCURVE",
"1812 896 CURVE SMOOTH",
"1812 1152 OFFCURVE",
"1740 1371 OFFCURVE",
"1596 1552 CURVE",
"1632 1592 LINE",
"1867 1400 OFFCURVE",
"1984 1168 OFFCURVE",
"1984 896 CURVE SMOOTH",
"1984 624 OFFCURVE",
"1867 392 OFFCURVE",
"1632 200 CURVE"
);
},
{
closed = 1;
nodes = (
"1300 1364 LINE",
"1436 1233 OFFCURVE",
"1504 1077 OFFCURVE",
"1504 894 CURVE SMOOTH",
"1504 711 OFFCURVE",
"1436 556 OFFCURVE",
"1300 428 CURVE",
"1252 464 LINE",
"1313 581 OFFCURVE",
"1344 725 OFFCURVE",
"1344 894 CURVE SMOOTH",
"1344 1063 OFFCURVE",
"1313 1208 OFFCURVE",
"1252 1328 CURVE"
);
}
);
width = 2048;
}
);
unicode = E047;
},
{
glyphname = uniE048;
layers = (
{
layerId = "8F42D1CE-E3A3-4C93-A330-F9A6EBA349AF";
name = Regular;
paths = (
{
closed = 1;
nodes = (
"939 533 OFFCURVE",
"992 512 OFFCURVE",
"1056 512 CURVE SMOOTH",
"1184 512 OFFCURVE",
"1280 609 OFFCURVE",
"1280 734 CURVE SMOOTH",
"1280 859 OFFCURVE",
"1179 960 OFFCURVE",
"1056 960 CURVE SMOOTH",
"933 960 OFFCURVE",
"832 859 OFFCURVE",
"832 734 CURVE SMOOTH",
"832 671 OFFCURVE",
"853 619 OFFCURVE",
"896 576 CURVE SMOOTH"
);
},
{
closed = 1;
nodes = (
"1235 418 OFFCURVE",
"1152 384 OFFCURVE",
"1056 384 CURVE SMOOTH",
"864 384 OFFCURVE",
"704 539 OFFCURVE",
"704 734 CURVE SMOOTH",
"704 929 OFFCURVE",
"864 1088 OFFCURVE",
"1056 1088 CURVE SMOOTH",
"1248 1088 OFFCURVE",
"1408 929 OFFCURVE",
"1408 734 CURVE SMOOTH",
"1408 637 OFFCURVE",
"1373 554 OFFCURVE",
"1304 486 CURVE SMOOTH"
);
},
{
closed = 1;
nodes = (
"404 1308 LINE",
"276 1151 OFFCURVE",
"212 959 OFFCURVE",
"212 734 CURVE SMOOTH",
"212 509 OFFCURVE",
"276 317 OFFCURVE",
"404 160 CURVE",
"372 124 LINE",
"167 292 OFFCURVE",
"64 495 OFFCURVE",
"64 734 CURVE SMOOTH",
"64 973 OFFCURVE",
"167 1176 OFFCURVE",
"372 1344 CURVE"
);
},
{
closed = 1;
nodes = (
"600 324 LINE",
"480 439 OFFCURVE",
"420 576 OFFCURVE",
"420 736 CURVE SMOOTH",
"420 896 OFFCURVE",
"480 1032 OFFCURVE",
"600 1144 CURVE",
"640 1116 LINE",
"640 1112 LINE",
"587 1008 OFFCURVE",
"560 882 OFFCURVE",
"560 734 CURVE SMOOTH",
"560 586 OFFCURVE",
"587 459 OFFCURVE",
"640 352 CURVE"
);
},
{
closed = 1;
nodes = (
"1708 160 LINE",
"1836 317 OFFCURVE",
"1900 509 OFFCURVE",
"1900 734 CURVE SMOOTH",
"1900 959 OFFCURVE",
"1836 1151 OFFCURVE",
"1708 1308 CURVE",
"1740 1344 LINE",
"1945 1176 OFFCURVE",
"2048 973 OFFCURVE",
"2048 734 CURVE SMOOTH",
"2048 495 OFFCURVE",
"1945 292 OFFCURVE",
"1740 124 CURVE"
);
},
{
closed = 1;
nodes = (
"1512 1144 LINE",
"1632 1032 OFFCURVE",
"1692 896 OFFCURVE",
"1692 736 CURVE SMOOTH",
"1692 576 OFFCURVE",
"1632 439 OFFCURVE",
"1512 324 CURVE",
"1472 352 LINE",
"1472 356 LINE",
"1525 460 OFFCURVE",
"1552 586 OFFCURVE",
"1552 734 CURVE SMOOTH",
"1552 882 OFFCURVE",
"1525 1009 OFFCURVE",
"1472 1116 CURVE"
);
}
);
width = 2048;
}
);
unicode = E048;
},
{
glyphname = uniE049;
layers = (
{
layerId = "8F42D1CE-E3A3-4C93-A330-F9A6EBA349AF";
name = Regular;
paths = (
{
closed = 1;
nodes = (
"908 995 OFFCURVE",
"976 1024 OFFCURVE",
"1056 1024 CURVE SMOOTH",
"1216 1024 OFFCURVE",
"1344 891 OFFCURVE",
"1344 734 CURVE SMOOTH",
"1344 577 OFFCURVE",
"1216 448 OFFCURVE",
"1056 448 CURVE SMOOTH",
"896 448 OFFCURVE",
"768 577 OFFCURVE",
"768 734 CURVE SMOOTH",
"768 813 OFFCURVE",
"796 881 OFFCURVE",
"852 938 CURVE SMOOTH"
);
},
{
closed = 1;
nodes = (
"404 1308 LINE",
"276 1151 OFFCURVE",
"212 959 OFFCURVE",
"212 734 CURVE SMOOTH",
"212 509 OFFCURVE",
"276 317 OFFCURVE",
"404 160 CURVE",
"372 124 LINE",
"167 292 OFFCURVE",
"64 495 OFFCURVE",
"64 734 CURVE SMOOTH",
"64 973 OFFCURVE",
"167 1176 OFFCURVE",
"372 1344 CURVE"
);
},
{
closed = 1;
nodes = (
"600 324 LINE",
"480 439 OFFCURVE",
"420 576 OFFCURVE",
"420 736 CURVE SMOOTH",
"420 896 OFFCURVE",
"480 1032 OFFCURVE",
"600 1144 CURVE",
"640 1116 LINE",
"640 1112 LINE",
"587 1008 OFFCURVE",
"560 882 OFFCURVE",
"560 734 CURVE SMOOTH",
"560 586 OFFCURVE",
"587 459 OFFCURVE",
"640 352 CURVE"
);
},
{
closed = 1;
nodes = (
"1708 160 LINE",
"1836 317 OFFCURVE",
"1900 509 OFFCURVE",
"1900 734 CURVE SMOOTH",
"1900 959 OFFCURVE",
"1836 1151 OFFCURVE",
"1708 1308 CURVE",
"1740 1344 LINE",
"1945 1176 OFFCURVE",
"2048 973 OFFCURVE",
"2048 734 CURVE SMOOTH",
"2048 495 OFFCURVE",
"1945 292 OFFCURVE",
"1740 124 CURVE"
);
},
{
closed = 1;
nodes = (
"1512 1144 LINE",
"1632 1032 OFFCURVE",
"1692 896 OFFCURVE",
"1692 736 CURVE SMOOTH",
"1692 576 OFFCURVE",
"1632 439 OFFCURVE",
"1512 324 CURVE",
"1472 352 LINE",
"1472 356 LINE",
"1525 460 OFFCURVE",
"1552 586 OFFCURVE",
"1552 734 CURVE SMOOTH",
"1552 882 OFFCURVE",
"1525 1009 OFFCURVE",
"1472 1116 CURVE"
);
}
);
width = 2048;
}
);
unicode = E049;
},
{
glyphname = uniE04A;
layers = (
{
layerId = "8F42D1CE-E3A3-4C93-A330-F9A6EBA349AF";
name = Regular;
paths = (
{
closed = 1;
nodes = (
"0 448 LINE",
"2048 448 LINE",
"2048 132 LINE",
"0 132 LINE"
);
},
{
closed = 1;
nodes = (
"0 1724 LINE",
"2048 1724 LINE",
"2048 1408 LINE",
"0 1408 LINE"
);
},
{
closed = 1;
nodes = (
"0 1088 LINE",
"2048 1088 LINE",
"2048 772 LINE",
"0 772 LINE"
);
}
);
width = 2048;
}
);
unicode = E04A;
},
{
glyphname = uniE04B;
layers = (
{
layerId = "8F42D1CE-E3A3-4C93-A330-F9A6EBA349AF";
name = Regular;
paths = (
{
closed = 1;
nodes = (
"1728 896 LINE",
"1728 832 LINE",
"652 128 LINE",
"576 188 LINE",
"576 1604 LINE",
"672 1656 LINE"
);
}
);
width = 2048;
}
);
unicode = E04B;
},
{
glyphname = uniE04C;
layers = (
{
layerId = "8F42D1CE-E3A3-4C93-A330-F9A6EBA349AF";
name = Regular;
paths = (
{
closed = 1;
nodes = (
"1792 256 LINE",
"1660 128 LINE",
"388 128 LINE",
"256 256 LINE",
"256 1536 LINE",
"388 1664 LINE",
"1660 1664 LINE",
"1792 1536 LINE"
);
}
);
width = 2048;
}
);
unicode = E04C;
},
{
glyphname = uniE04D;
layers = (
{
layerId = "8F42D1CE-E3A3-4C93-A330-F9A6EBA349AF";
name = Regular;
paths = (
{
closed = 1;
nodes = (
"644 128 LINE",
"388 128 LINE",
"260 256 LINE",
"260 1536 LINE",
"388 1664 LINE",
"644 1664 LINE",
"768 1536 LINE",
"768 256 LINE"
);
},
{
closed = 1;
nodes = (
"1664 128 LINE",
"1408 128 LINE",
"1280 256 LINE",
"1280 1536 LINE",
"1408 1664 LINE",
"1664 1664 LINE",
"1788 1536 LINE",
"1788 256 LINE"
);
}
);
width = 2048;
}
);
unicode = E04D;
},
{
glyphname = uniE04E;
layers = (
{
layerId = "8F42D1CE-E3A3-4C93-A330-F9A6EBA349AF";
name = Regular;
paths = (
{
closed = 1;
nodes = (
"1984 896 LINE",
"1984 832 LINE",
"1096 128 LINE",
"1024 188 LINE",
"1024 1604 LINE",
"1096 1664 LINE"
);
},
{
closed = 1;
nodes = (
"960 896 LINE",
"960 824 LINE",
"76 128 LINE",
"0 188 LINE",
"0 1604 LINE",
"76 1664 LINE"
);
}
);
width = 2048;
}
);
unicode = E04E;
},
{
glyphname = uniE04F;
layers = (
{
layerId = "8F42D1CE-E3A3-4C93-A330-F9A6EBA349AF";
name = Regular;
paths = (
{
closed = 1;
nodes = (
"1700 132 LINE",
"1024 656 LINE",
"348 132 LINE",
"256 220 LINE",
"780 896 LINE",
"256 1572 LINE",
"348 1664 LINE",
"1024 1136 LINE",
"1700 1664 LINE",
"1788 1572 LINE",
"1264 896 LINE",
"1788 220 LINE"
);
}
);
width = 2048;
}
);
unicode = E04F;
},
{
glyphname = uniE050;
layers = (
{
layerId = "8F42D1CE-E3A3-4C93-A330-F9A6EBA349AF";
name = Regular;
paths = (
{
closed = 1;
nodes = (
"2048 836 LINE",
"1196 732 LINE",
"1092 -120 LINE",
"964 -120 LINE",
"856 732 LINE",
"8 836 LINE",
"8 964 LINE",
"856 1068 LINE",
"964 1920 LINE",
"1092 1920 LINE",
"1196 1072 LINE",
"2048 964 LINE"
);
}
);
width = 2048;
}
);
unicode = E050;
},
{
glyphname = uniE051;
layers = (
{
layerId = "8F42D1CE-E3A3-4C93-A330-F9A6EBA349AF";
name = Regular;
paths = (
{
closed = 1;
nodes = (
"932 788 LINE",
"328 180 LINE",
"-4 768 LINE",
"824 952 LINE",
"-4 1128 LINE",
"328 1720 LINE",
"932 1104 LINE",
"660 1920 LINE",
"1380 1920 LINE",
"1108 1104 LINE",
"1712 1720 LINE",
"2044 1128 LINE",
"1212 952 LINE",
"2044 768 LINE",
"1712 180 LINE",
"1108 788 LINE",
"1380 0 LINE",
"660 0 LINE"
);
}
);
width = 2048;
}
);
unicode = E051;
},
{
glyphname = uniE052;
layers = (
{
layerId = "8F42D1CE-E3A3-4C93-A330-F9A6EBA349AF";
name = Regular;
paths = (
{
closed = 1;
nodes = (
"288 1288 LINE",
"320 1344 LINE",
"1040 1016 LINE",
"1748 1344 LINE",
"1792 1288 LINE",
"1036 688 LINE"
);
},
{
closed = 1;
nodes = (
"192 1536 LINE",
"192 384 LINE",
"1856 384 LINE",
"1856 1536 LINE"
);
},
{
closed = 1;
nodes = (
"1920 192 LINE",
"140 192 LINE",
"0 332 LINE",
"0 1588 LINE",
"128 1728 LINE",
"1912 1724 LINE",
"2048 1588 LINE",
"2048 332 LINE"
);
}
);
width = 2048;
}
);
unicode = E052;
},
{
glyphname = uniE053;
layers = (
{
layerId = "8F42D1CE-E3A3-4C93-A330-F9A6EBA349AF";
name = Regular;
paths = (
{
closed = 1;
nodes = (
"1856 1024 LINE",
"1472 1024 LINE",
"1472 384 LINE",
"1856 384 LINE",
"1856 512 LINE",
"1600 512 LINE",
"1600 640 LINE",
"1856 640 LINE",
"1856 768 LINE",
"1600 768 LINE",
"1600 896 LINE",
"1856 896 LINE"
);
},
{
closed = 1;
nodes = (
"1408 1024 LINE",
"1280 1024 LINE",
"1088 576 LINE",
"896 1024 LINE",
"768 1024 LINE",
"1024 384 LINE",
"1152 384 LINE"
);
},
{
closed = 1;
nodes = (
"704 1024 LINE",
"576 1024 LINE",
"576 384 LINE",
"704 384 LINE"
);
},
{
closed = 1;
nodes = (
"512 512 LINE",
"256 512 LINE",
"256 1024 LINE",
"128 1024 LINE",
"128 384 LINE",
"512 384 LINE"
);
},
{
closed = 1;
nodes = (
"2048 132 LINE",
"0 132 LINE",
"0 1280 LINE",
"2048 1276 LINE"
);
}
);
width = 2048;
}
);
unicode = E053;
},
{
glyphname = uniE054;
layers = (
{
layerId = "8F42D1CE-E3A3-4C93-A330-F9A6EBA349AF";
name = Regular;
paths = (
{
closed = 1;
nodes = (
"1728 1092 LINE",
"1696 1136 LINE",
"1024 768 LINE",
"332 1136 LINE",
"320 1088 LINE",
"952 576 LINE",
"1024 512 LINE",
"1088 576 LINE"
);
},
{
closed = 1;
nodes = (
"1920 1280 LINE",
"1920 256 LINE",
"1792 128 LINE",
"256 128 LINE",
"128 256 LINE",
"128 1280 LINE",
"256 1408 LINE",
"1796 1404 LINE"
);
}
);
width = 2048;
}
);
unicode = E054;
},
{
glyphname = uniE055;
layers = (
{
layerId = "8F42D1CE-E3A3-4C93-A330-F9A6EBA349AF";
name = Regular;
paths = (
{
closed = 1;
nodes = (
"896 1344 LINE",
"896 640 LINE",
"1392 640 LINE",
"1392 748 LINE",
"1044 832 LINE",
"960 1344 LINE"
);
},
{
closed = 1;
nodes = (
"1717 1227 OFFCURVE",
"1792 1045 OFFCURVE",
"1792 832 CURVE SMOOTH",
"1792 405 OFFCURVE",
"1446 64 OFFCURVE",
"1022 64 CURVE SMOOTH",
"598 64 OFFCURVE",
"256 405 OFFCURVE",
"256 832 CURVE SMOOTH",
"256 1259 OFFCURVE",
"598 1600 OFFCURVE",
"1022 1600 CURVE SMOOTH",
"1234 1600 OFFCURVE",
"1415 1525 OFFCURVE",
"1566 1376 CURVE SMOOTH"
);
}
);
width = 2048;
}
);
unicode = E055;
},
{
glyphname = uniE056;
layers = (
{
layerId = "8F42D1CE-E3A3-4C93-A330-F9A6EBA349AF";
name = Regular;
paths = (
{
closed = 1;
nodes = (
"1404 704 LINE",
"956 704 LINE",
"956 1216 LINE",
"1020 1216 LINE",
"1096 832 LINE",
"1404 756 LINE"
);
},
{
closed = 1;
nodes = (
"1575 516 OFFCURVE",
"1636 661 OFFCURVE",
"1636 832 CURVE SMOOTH",
"1636 1173 OFFCURVE",
"1357 1448 OFFCURVE",
"1018 1448 CURVE SMOOTH",
"679 1448 OFFCURVE",
"404 1173 OFFCURVE",
"404 832 CURVE SMOOTH",
"404 491 OFFCURVE",
"679 216 OFFCURVE",
"1018 216 CURVE SMOOTH",
"1187 216 OFFCURVE",
"1333 276 OFFCURVE",
"1454 396 CURVE SMOOTH"
);
},
{
closed = 1;
nodes = (
"1712 1223 OFFCURVE",
"1788 1043 OFFCURVE",
"1788 832 CURVE SMOOTH",
"1788 411 OFFCURVE",
"1441 64 OFFCURVE",
"1020 64 CURVE SMOOTH",
"599 64 OFFCURVE",
"252 411 OFFCURVE",
"252 832 CURVE SMOOTH",
"252 1253 OFFCURVE",
"599 1600 OFFCURVE",
"1020 1600 CURVE SMOOTH",
"1231 1600 OFFCURVE",
"1411 1524 OFFCURVE",
"1560 1372 CURVE SMOOTH"
);
}
);
width = 2048;
}
);
unicode = E056;
},
{
glyphname = uniE057;
layers = (
{
layerId = "8F42D1CE-E3A3-4C93-A330-F9A6EBA349AF";
name = Regular;
paths = (
{
closed = 1;
nodes = (
"1619 491 OFFCURVE",
"1684 648 OFFCURVE",
"1684 832 CURVE SMOOTH",
"1684 1200 OFFCURVE",
"1388 1496 OFFCURVE",
"1020 1496 CURVE SMOOTH",
"652 1496 OFFCURVE",
"356 1200 OFFCURVE",
"356 832 CURVE SMOOTH",
"356 464 OFFCURVE",
"652 168 OFFCURVE",
"1020 168 CURVE SMOOTH",
"1204 168 OFFCURVE",
"1361 233 OFFCURVE",
"1490 362 CURVE SMOOTH"
);
},
{
closed = 1;
nodes = (
"1852 373 OFFCURVE",
"1479 0 OFFCURVE",
"1020 0 CURVE SMOOTH",
"561 0 OFFCURVE",
"188 373 OFFCURVE",
"188 832 CURVE SMOOTH",
"188 1221 OFFCURVE",
"460 1555 OFFCURVE",
"828 1640 CURVE",
"828 1856 LINE",
"1212 1856 LINE",
"1212 1640 LINE",
"1580 1555 OFFCURVE",
"1852 1221 OFFCURVE",
"1852 832 CURVE SMOOTH"
);
},
{
closed = 1;
nodes = (
"1436 664 LINE",
"936 664 LINE",
"936 1332 LINE",
"1020 1332 LINE",
"1104 832 LINE",
"1436 748 LINE"
);
}
);
width = 2048;
}
);
unicode = E057;
},
{
glyphname = uniE058;
layers = (
{
layerId = "8F42D1CE-E3A3-4C93-A330-F9A6EBA349AF";
name = Regular;
paths = (
{
closed = 1;
nodes = (
"648 1280 LINE",
"1448 1276 LINE",
"1432 1416 LINE",
"664 1416 LINE"
);
},
{
closed = 1;
nodes = (
"524 1280 LINE",
"524 1600 LINE",
"1600 1600 LINE",
"1600 1276 LINE",
"1920 1276 LINE",
"2040 1152 LINE",
"2040 192 LINE",
"1920 64 LINE",
"192 64 LINE",
"64 192 LINE",
"64 1152 LINE",
"192 1280 LINE"
);
}
);
width = 2048;
}
);
unicode = E058;
},
{
glyphname = uniE059;
layers = (
{
layerId = "8F42D1CE-E3A3-4C93-A330-F9A6EBA349AF";
name = Regular;
paths = (
{
closed = 1;
nodes = (
"1088 320 LINE",
"1088 0 LINE",
"896 0 LINE",
"896 320 LINE",
"512 320 LINE",
"448 408 LINE",
"756 896 LINE",
"512 896 LINE",
"448 960 LINE",
"960 1792 LINE",
"1088 1792 LINE",
"1536 960 LINE",
"1472 896 LINE",
"1244 896 LINE",
"1536 408 LINE",
"1472 320 LINE"
);
}
);
width = 2048;
}
);
unicode = E059;
},
{
glyphname = uniE05A;
layers = (
{
layerId = "8F42D1CE-E3A3-4C93-A330-F9A6EBA349AF";
name = Regular;
paths = (
{
closed = 1;
nodes = (
"1261 573 OFFCURVE",
"1280 619 OFFCURVE",
"1280 672 CURVE SMOOTH",
"1280 779 OFFCURVE",
"1195 864 OFFCURVE",
"1088 864 CURVE SMOOTH",
"981 864 OFFCURVE",
"896 779 OFFCURVE",
"896 672 CURVE SMOOTH",
"896 565 OFFCURVE",
"981 480 OFFCURVE",
"1088 480 CURVE SMOOTH",
"1141 480 OFFCURVE",
"1187 499 OFFCURVE",
"1224 536 CURVE SMOOTH"
);
},
{
closed = 1;
nodes = (
"1029 301 OFFCURVE",
"1040 328 OFFCURVE",
"1040 360 CURVE SMOOTH",
"1040 424 OFFCURVE",
"988 472 OFFCURVE",
"924 472 CURVE SMOOTH",
"860 472 OFFCURVE",
"812 424 OFFCURVE",
"812 360 CURVE SMOOTH",
"812 296 OFFCURVE",
"860 248 OFFCURVE",
"924 248 CURVE SMOOTH",
"956 248 OFFCURVE",
"983 259 OFFCURVE",
"1006 280 CURVE SMOOTH"
);
},
{
closed = 1;
nodes = (
"1247 64 OFFCURVE",
"961 64 OFFCURVE",
"769 64 CURVE SMOOTH",
"576 64 OFFCURVE",
"480 65 OFFCURVE",
"480 68 CURVE",
"384 160 LINE",
"896 984 LINE",
"896 1728 LINE",
"832 1728 LINE",
"832 1848 LINE",
"1344 1848 LINE",
"1344 1728 LINE",
"1280 1728 LINE",
"1280 984 LINE",
"1744 156 LINE",
"1652 68 LINE",
"1641 65 OFFCURVE",
"1633 64 OFFCURVE",
"1628 64 CURVE SMOOTH"
);
}
);
width = 2048;
}
);
unicode = E05A;
},
{
glyphname = uniE05B;
layers = (
{
layerId = "8F42D1CE-E3A3-4C93-A330-F9A6EBA349AF";
name = Regular;
paths = (
{
closed = 1;
nodes = (
"704 316 LINE",
"1344 316 LINE",
"1344 1540 LINE",
"704 1540 LINE"
);
},
{
closed = 1;
nodes = (
"576 64 LINE",
"576 128 LINE",
"532 128 LINE",
"512 160 LINE",
"512 256 LINE",
"320 256 LINE",
"320 444 LINE",
"512 444 LINE",
"512 640 LINE",
"320 640 LINE",
"320 828 LINE",
"512 828 LINE",
"512 1024 LINE",
"320 1024 LINE",
"320 1212 LINE",
"512 1212 LINE",
"512 1408 LINE",
"320 1408 LINE",
"320 1596 LINE",
"512 1596 LINE",
"512 1692 LINE",
"536 1728 LINE",
"576 1728 LINE",
"576 1788 LINE",
"1472 1788 LINE",
"1472 1728 LINE",
"1512 1728 LINE",
"1536 1692 LINE",
"1536 1596 LINE",
"1728 1596 LINE",
"1728 1408 LINE",
"1536 1408 LINE",
"1536 1212 LINE",
"1728 1212 LINE",
"1728 1024 LINE",
"1536 1024 LINE",
"1536 828 LINE",
"1728 828 LINE",
"1728 640 LINE",
"1536 640 LINE",
"1536 444 LINE",
"1728 444 LINE",
"1728 256 LINE",
"1536 256 LINE",
"1536 160 LINE",
"1520 128 LINE",
"1472 128 LINE",
"1472 64 LINE"
);
}
);
width = 2048;
}
);
unicode = E05B;
},
{
glyphname = uniE05C;
layers = (
{
layerId = "8F42D1CE-E3A3-4C93-A330-F9A6EBA349AF";
name = Regular;
paths = (
{
closed = 1;
nodes = (
"0 1152 LINE",
"0 1344 LINE",
"128 1472 LINE",
"1920 1472 LINE",
"2048 1344 LINE",
"2048 1152 LINE"
);
},
{
closed = 1;
nodes = (
"768 768 LINE",
"192 768 LINE",
"192 640 LINE",
"768 640 LINE"
);
},
{
closed = 1;
nodes = (
"768 512 LINE",
"192 512 LINE",
"192 384 LINE",
"768 384 LINE"
);
},
{
closed = 1;
nodes = (
"2048 960 LINE",
"2048 192 LINE",
"1920 64 LINE",
"128 64 LINE",
"0 192 LINE",
"0 960 LINE"
);
}
);
width = 2048;
}
);
unicode = E05C;
},
{
glyphname = uniE05D;
layers = (
{
layerId = "8F42D1CE-E3A3-4C93-A330-F9A6EBA349AF";
name = Regular;
paths = (
{
closed = 1;
nodes = (
"192 1540 LINE",
"192 388 LINE",
"0 388 LINE",
"0 1600 LINE",
"128 1728 LINE",
"1444 1728 LINE",
"1336 1540 LINE"
);
},
{
closed = 1;
nodes = (
"1472 1088 LINE",
"1280 1088 LINE",
"1280 384 LINE",
"1472 384 LINE"
);
},
{
closed = 1;
nodes = (
"1024 1088 LINE",
"832 1088 LINE",
"832 384 LINE",
"1024 384 LINE"
);
},
{
closed = 1;
nodes = (
"320 192 LINE",
"320 1280 LINE",
"448 1400 LINE",
"1856 1400 LINE",
"1980 1280 LINE",
"1980 192 LINE",
"1856 72 LINE",
"448 72 LINE"
);
}
);
width = 2048;
}
);
unicode = E05D;
},
{
glyphname = uniE05E;
layers = (
{
layerId = "8F42D1CE-E3A3-4C93-A330-F9A6EBA349AF";
name = Regular;
paths = (
{
closed = 1;
nodes = (
"192 1540 LINE",
"192 388 LINE",
"0 388 LINE",
"0 1600 LINE",
"128 1728 LINE",
"1444 1728 LINE",
"1336 1540 LINE"
);
},
{
closed = 1;
nodes = (
"896 1152 LINE",
"896 384 LINE",
"1472 732 LINE",
"1472 804 LINE"
);
},
{
closed = 1;
nodes = (
"320 192 LINE",
"320 1280 LINE",
"448 1400 LINE",
"1856 1400 LINE",
"1980 1280 LINE",
"1980 192 LINE",
"1856 72 LINE",
"448 72 LINE"
);
}
);
width = 2048;
}
);
unicode = E05E;
},
{
glyphname = uniF000;
layers = (
{
layerId = "8F42D1CE-E3A3-4C93-A330-F9A6EBA349AF";
name = Regular;
paths = (
{
closed = 1;
nodes = (
"1952 816 LINE",
"1280 720 LINE",
"796 720 LINE",
"120 816 LINE",
"120 936 LINE",
"796 1008 LINE",
"1280 1008 LINE",
"1952 936 LINE"
);
}
);
width = 2048;
}
);
unicode = E060;
},
{
glyphname = uniF000.001;
layers = (
{
layerId = "8F42D1CE-E3A3-4C93-A330-F9A6EBA349AF";
name = Regular;
paths = (
{
closed = 1;
nodes = (
"256 844 LINE",
"256 1404 LINE",
"392 1404 LINE",
"440 1276 LINE",
"440 1012 LINE",
"1392 1012 LINE",
"1388 1024 OFFCURVE",
"1379 1049 OFFCURVE",
"1365 1087 CURVE SMOOTH",
"1351 1125 OFFCURVE",
"1341 1154 OFFCURVE",
"1334 1174 CURVE SMOOTH",
"1327 1194 OFFCURVE",
"1321 1211 OFFCURVE",
"1316 1224 CURVE SMOOTH",
"1308 1244 LINE",
"1380 1312 LINE",
"1780 912 LINE",
"1380 512 LINE",
"1308 584 LINE",
"1316 606 LINE SMOOTH",
"1321 621 OFFCURVE",
"1325 631 OFFCURVE",
"1326 637 CURVE",
"1392 844 LINE"
);
}
);
width = 2048;
}
);
unicode = E061;
},
{
glyphname = uniF000.002;
layers = (
{
layerId = "8F42D1CE-E3A3-4C93-A330-F9A6EBA349AF";
name = Regular;
paths = (
{
closed = 1;
nodes = (
"224 984 LINE",
"268 1064 LINE",
"716 784 LINE",
"1756 1592 LINE",
"1824 1532 LINE",
"868 512 LINE",
"772 404 LINE"
);
}
);
width = 2048;
}
);
unicode = E062;
},
{
glyphname = uniF000.003;
layers = (
{
layerId = "8F42D1CE-E3A3-4C93-A330-F9A6EBA349AF";
name = Regular;
paths = (
{
closed = 1;
nodes = (
"576 636 LINE",
"896 572 LINE",
"0 -132 LINE"
);
},
{
closed = 1;
nodes = (
"1468 988 LINE",
"1573 744 OFFCURVE",
"1537 456 OFFCURVE",
"1344 252 CURVE",
"384 1212 LINE",
"571 1409 OFFCURVE",
"872 1445 OFFCURVE",
"1116 1340 CURVE",
"1564 1920 LINE",
"2048 1436 LINE"
);
}
);
width = 2048;
}
);
unicode = E063;
},
{
glyphname = uniF000.004;
layers = (
{
layerId = "8F42D1CE-E3A3-4C93-A330-F9A6EBA349AF";
name = Regular;
paths = (
{
closed = 1;
nodes = (
"576 636 LINE",
"896 572 LINE",
"0 -132 LINE"
);
},
{
closed = 1;
nodes = (
"1468 988 LINE",
"1573 744 OFFCURVE",
"1537 456 OFFCURVE",
"1344 252 CURVE",
"384 1212 LINE",
"571 1409 OFFCURVE",
"872 1445 OFFCURVE",
"1116 1340 CURVE",
"1564 1920 LINE",
"2048 1436 LINE"
);
}
);
width = 2048;
}
);
unicode = E064;
},
{
glyphname = uniF000.005;
layers = (
{
layerId = "8F42D1CE-E3A3-4C93-A330-F9A6EBA349AF";
name = Regular;
paths = (
{
closed = 1;
nodes = (
"576 636 LINE",
"896 572 LINE",
"0 -132 LINE"
);
},
{
closed = 1;
nodes = (
"1468 988 LINE",
"1573 744 OFFCURVE",
"1537 456 OFFCURVE",
"1344 252 CURVE",
"384 1212 LINE",
"571 1409 OFFCURVE",
"872 1445 OFFCURVE",
"1116 1340 CURVE",
"1564 1920 LINE",
"2048 1436 LINE"
);
}
);
width = 2048;
}
);
unicode = E065;
},
{
glyphname = uniF000.006;
layers = (
{
layerId = "8F42D1CE-E3A3-4C93-A330-F9A6EBA349AF";
name = Regular;
paths = (
{
closed = 1;
nodes = (
"1148 -80 LINE",
"900 -80 LINE",
"900 1444 LINE",
"60 1004 LINE",
"16 1060 LINE",
"928 1792 LINE",
"1024 1872 LINE",
"1120 1792 LINE",
"2032 1060 LINE",
"1984 1004 LINE",
"1148 1444 LINE"
);
}
);
width = 2048;
}
);
unicode = E066;
},
{
glyphname = uniF000.007;
layers = (
{
layerId = "8F42D1CE-E3A3-4C93-A330-F9A6EBA349AF";
name = Regular;
paths = (
{
closed = 1;
nodes = (
"1040 640 LINE",
"1008 640 LINE",
"848 1516 LINE",
"960 1596 LINE",
"1088 1596 LINE",
"1196 1516 LINE"
);
},
{
closed = 1;
nodes = (
"1065 197 OFFCURVE",
"1045 192 OFFCURVE",
"1024 192 CURVE SMOOTH",
"981 192 OFFCURVE",
"939 213 OFFCURVE",
"910 240 CURVE SMOOTH",
"881 267 OFFCURVE",
"864 309 OFFCURVE",
"864 352 CURVE SMOOTH",
"864 395 OFFCURVE",
"881 437 OFFCURVE",
"910 464 CURVE SMOOTH",
"939 491 OFFCURVE",
"981 512 OFFCURVE",
"1024 512 CURVE SMOOTH",
"1067 512 OFFCURVE",
"1105 491 OFFCURVE",
"1134 464 CURVE SMOOTH",
"1163 437 OFFCURVE",
"1180 395 OFFCURVE",
"1180 352 CURVE SMOOTH",
"1180 309 OFFCURVE",
"1163 267 OFFCURVE",
"1134 240 CURVE",
"1119 227 OFFCURVE",
"1103 215 OFFCURVE",
"1084 206 CURVE SMOOTH"
);
}
);
width = 2048;
}
);
unicode = E067;
},
{
glyphname = uniE000;
layers = (
{
layerId = "8F42D1CE-E3A3-4C93-A330-F9A6EBA349AF";
name = Regular;
paths = (
{
closed = 1;
nodes = (
"1792 540 LINE SMOOTH",
"1792 561 OFFCURVE",
"1803 572 OFFCURVE",
"1824 572 CURVE SMOOTH",
"1952 572 LINE SMOOTH",
"1973 572 OFFCURVE",
"1984 551 OFFCURVE",
"1984 540 CURVE SMOOTH",
"1984 412 LINE SMOOTH",
"1984 395 OFFCURVE",
"1957 380 OFFCURVE",
"1952 380 CURVE SMOOTH",
"1824 380 LINE SMOOTH",
"1793 380 OFFCURVE",
"1792 407 OFFCURVE",
"1792 412 CURVE SMOOTH"
);
},
{
closed = 1;
nodes = (
"1792 1244 LINE SMOOTH",
"1792 1265 OFFCURVE",
"1803 1276 OFFCURVE",
"1824 1276 CURVE SMOOTH",
"1952 1276 LINE SMOOTH",
"1973 1276 OFFCURVE",
"1984 1255 OFFCURVE",
"1984 1244 CURVE SMOOTH",
"1984 1116 LINE SMOOTH",
"1984 1099 OFFCURVE",
"1957 1084 OFFCURVE",
"1952 1084 CURVE SMOOTH",
"1824 1084 LINE SMOOTH",
"1793 1084 OFFCURVE",
"1792 1111 OFFCURVE",
"1792 1116 CURVE SMOOTH"
);
},
{
closed = 1;
nodes = (
"1216 540 LINE SMOOTH",
"1216 561 OFFCURVE",
"1227 572 OFFCURVE",
"1248 572 CURVE SMOOTH",
"1376 572 LINE SMOOTH",
"1397 572 OFFCURVE",
"1408 551 OFFCURVE",
"1408 540 CURVE SMOOTH",
"1408 412 LINE SMOOTH",
"1408 395 OFFCURVE",
"1381 380 OFFCURVE",
"1376 380 CURVE SMOOTH",
"1248 380 LINE SMOOTH",
"1217 380 OFFCURVE",
"1216 407 OFFCURVE",
"1216 412 CURVE SMOOTH"
);
},
{
closed = 1;
nodes = (
"1216 1244 LINE SMOOTH",
"1216 1265 OFFCURVE",
"1227 1276 OFFCURVE",
"1248 1276 CURVE SMOOTH",
"1376 1276 LINE SMOOTH",
"1397 1276 OFFCURVE",
"1408 1255 OFFCURVE",
"1408 1244 CURVE SMOOTH",
"1408 1116 LINE SMOOTH",
"1408 1099 OFFCURVE",
"1381 1084 OFFCURVE",
"1376 1084 CURVE SMOOTH",
"1248 1084 LINE SMOOTH",
"1217 1084 OFFCURVE",
"1216 1111 OFFCURVE",
"1216 1116 CURVE SMOOTH"
);
},
{
closed = 1;
nodes = (
"640 540 LINE SMOOTH",
"640 561 OFFCURVE",
"651 572 OFFCURVE",
"672 572 CURVE SMOOTH",
"800 572 LINE SMOOTH",
"821 572 OFFCURVE",
"832 551 OFFCURVE",
"832 540 CURVE SMOOTH",
"832 412 LINE SMOOTH",
"832 395 OFFCURVE",
"805 380 OFFCURVE",
"800 380 CURVE SMOOTH",
"672 380 LINE SMOOTH",
"641 380 OFFCURVE",
"640 407 OFFCURVE",
"640 412 CURVE SMOOTH"
);
},
{
closed = 1;
nodes = (
"640 1244 LINE SMOOTH",
"640 1265 OFFCURVE",
"651 1276 OFFCURVE",
"672 1276 CURVE SMOOTH",
"800 1276 LINE SMOOTH",
"821 1276 OFFCURVE",
"832 1255 OFFCURVE",
"832 1244 CURVE SMOOTH",
"832 1116 LINE SMOOTH",
"832 1099 OFFCURVE",
"805 1084 OFFCURVE",
"800 1084 CURVE SMOOTH",
"672 1084 LINE SMOOTH",
"641 1084 OFFCURVE",
"640 1111 OFFCURVE",
"640 1116 CURVE SMOOTH"
);
},
{
closed = 1;
nodes = (
"64 540 LINE SMOOTH",
"64 561 OFFCURVE",
"75 572 OFFCURVE",
"96 572 CURVE SMOOTH",
"224 572 LINE SMOOTH",
"245 572 OFFCURVE",
"256 551 OFFCURVE",
"256 540 CURVE SMOOTH",
"256 412 LINE SMOOTH",
"256 395 OFFCURVE",
"229 380 OFFCURVE",
"224 380 CURVE SMOOTH",
"96 380 LINE SMOOTH",
"65 380 OFFCURVE",
"64 407 OFFCURVE",
"64 412 CURVE SMOOTH"
);
},
{
closed = 1;
nodes = (
"64 1244 LINE SMOOTH",
"64 1265 OFFCURVE",
"75 1276 OFFCURVE",
"96 1276 CURVE SMOOTH",
"224 1276 LINE SMOOTH",
"245 1276 OFFCURVE",
"256 1255 OFFCURVE",
"256 1244 CURVE SMOOTH",
"256 1116 LINE SMOOTH",
"256 1099 OFFCURVE",
"229 1084 OFFCURVE",
"224 1084 CURVE SMOOTH",
"96 1084 LINE SMOOTH",
"65 1084 OFFCURVE",
"64 1111 OFFCURVE",
"64 1116 CURVE SMOOTH"
);
}
);
width = 2048;
}
);
unicode = E068;
},
{
glyphname = uniE000.002;
layers = (
{
layerId = "8F42D1CE-E3A3-4C93-A330-F9A6EBA349AF";
name = Regular;
paths = (
{
closed = 1;
nodes = (
"648 648 LINE",
"436 659 OFFCURVE",
"236 515 OFFCURVE",
"236 356 CURVE SMOOTH",
"236 105 OFFCURVE",
"504 72 OFFCURVE",
"616 72 CURVE SMOOTH",
"888 72 OFFCURVE",
"1024 164 OFFCURVE",
"1024 348 CURVE",
"1016 404 LINE",
"997 491 OFFCURVE",
"921 535 OFFCURVE",
"870 570 CURVE SMOOTH",
"845 587 OFFCURVE",
"817 607 OFFCURVE",
"788 628 CURVE",
"777 631 OFFCURVE",
"761 635 OFFCURVE",
"740 640 CURVE SMOOTH",
"719 645 OFFCURVE",
"706 648 OFFCURVE",
"702 648 CURVE SMOOTH"
);
},
{
closed = 1;
nodes = (
"584 993 OFFCURVE",
"755 985 OFFCURVE",
"843 1119 CURVE SMOOTH",
"886 1186 OFFCURVE",
"900 1266 OFFCURVE",
"884 1360 CURVE",
"863 1557 OFFCURVE",
"727 1701 OFFCURVE",
"576 1712 CURVE",
"425 1712 OFFCURVE",
"335 1572 OFFCURVE",
"356 1376 CURVE",
"373 1275 OFFCURVE",
"410 1192 OFFCURVE",
"468 1126 CURVE SMOOTH"
);
},
{
closed = 1;
nodes = (
"328 964 OFFCURVE",
"152 1149 OFFCURVE",
"152 1370 CURVE SMOOTH",
"152 1591 OFFCURVE",
"387 1792 OFFCURVE",
"648 1792 CURVE SMOOTH",
"836 1792 OFFCURVE",
"1024 1792 OFFCURVE",
"1212 1792 CURVE",
"1088 1728 LINE",
"908 1728 LINE",
"1079 1635 OFFCURVE",
"1088 1457 OFFCURVE",
"1088 1390 CURVE SMOOTH",
"1088 1263 OFFCURVE",
"1035 1159 OFFCURVE",
"928 1076 CURVE",
"879 1033 OFFCURVE",
"850 1005 OFFCURVE",
"841 992 CURVE",
"824 965 OFFCURVE",
"820 943 OFFCURVE",
"820 916 CURVE SMOOTH",
"820 889 OFFCURVE",
"844 852 OFFCURVE",
"876 820 CURVE SMOOTH",
"892 804 OFFCURVE",
"909 789 OFFCURVE",
"926 774 CURVE SMOOTH",
"943 759 OFFCURVE",
"957 747 OFFCURVE",
"968 736 CURVE",
"1181 599 OFFCURVE",
"1168 455 OFFCURVE",
"1168 362 CURVE SMOOTH",
"1168 269 OFFCURVE",
"1134 169 OFFCURVE",
"983 36 CURVE SMOOTH",
"908 -31 OFFCURVE",
"787 -64 OFFCURVE",
"620 -64 CURVE SMOOTH",
"287 -64 OFFCURVE",
"32 87 OFFCURVE",
"32 296 CURVE SMOOTH",
"32 397 OFFCURVE",
"74 489 OFFCURVE",
"241 612 CURVE SMOOTH",
"324 673 OFFCURVE",
"440 704 OFFCURVE",
"588 704 CURVE SMOOTH",
"621 704 OFFCURVE",
"655 704 OFFCURVE",
"688 704 CURVE",
"635 747 OFFCURVE",
"608 799 OFFCURVE",
"608 860 CURVE SMOOTH",
"608 889 OFFCURVE",
"612 912 OFFCURVE",
"620 928 CURVE SMOOTH",
"628 944 OFFCURVE",
"633 956 OFFCURVE",
"636 964 CURVE",
"619 964 OFFCURVE",
"601 964 OFFCURVE",
"584 964 CURVE SMOOTH"
);
},
{
closed = 1;
nodes = (
"1984 896 LINE",
"1728 896 LINE",
"1728 640 LINE",
"1600 640 LINE",
"1600 896 LINE",
"1344 896 LINE",
"1344 1024 LINE",
"1600 1024 LINE",
"1600 1280 LINE",
"1728 1280 LINE",
"1728 1024 LINE",
"1984 1024 LINE"
);
}
);
width = 2048;
}
);
unicode = E069;
},
{
glyphname = uniE000.003;
layers = (
{
layerId = "8F42D1CE-E3A3-4C93-A330-F9A6EBA349AF";
name = Regular;
paths = (
{
closed = 1;
nodes = (
"704 -128 LINE",
"704 832 LINE",
"384 832 LINE",
"384 1152 LINE",
"704 1152 LINE",
"704 1444 LINE SMOOTH",
"704 1743 OFFCURVE",
"903 1920 OFFCURVE",
"1180 1920 CURVE SMOOTH",
"1252 1920 OFFCURVE",
"1308 1918 OFFCURVE",
"1348 1914 CURVE SMOOTH",
"1388 1910 OFFCURVE",
"1417 1907 OFFCURVE",
"1434 1906 CURVE SMOOTH",
"1460 1904 LINE",
"1472 1600 LINE",
"1280 1600 LINE",
"1250 1598 LINE SMOOTH",
"1149 1591 OFFCURVE",
"1088 1509 OFFCURVE",
"1088 1408 CURVE SMOOTH",
"1088 1152 LINE",
"1472 1152 LINE",
"1400 832 LINE",
"1088 832 LINE",
"1088 -128 LINE"
);
}
);
width = 2048;
}
);
unicode = E06A;
},
{
glyphname = uniE000.004;
layers = (
{
layerId = "8F42D1CE-E3A3-4C93-A330-F9A6EBA349AF";
name = Regular;
paths = (
{
closed = 1;
nodes = (
"1840 1260 LINE",
"1840 977 OFFCURVE",
"1735 685 OFFCURVE",
"1532 456 CURVE SMOOTH",
"1329 227 OFFCURVE",
"1028 68 OFFCURVE",
"644 68 CURVE SMOOTH",
"407 68 OFFCURVE",
"179 136 OFFCURVE",
"0 252 CURVE",
"8 249 OFFCURVE",
"16 248 OFFCURVE",
"24 248 CURVE SMOOTH",
"32 248 OFFCURVE",
"40 247 OFFCURVE",
"48 246 CURVE SMOOTH",
"56 245 OFFCURVE",
"65 245 OFFCURVE",
"74 246 CURVE SMOOTH",
"83 247 OFFCURVE",
"92 247 OFFCURVE",
"100 244 CURVE",
"341 257 OFFCURVE",
"501 328 OFFCURVE",
"620 428 CURVE",
"444 428 OFFCURVE",
"285 544 OFFCURVE",
"228 716 CURVE",
"252 714 LINE SMOOTH",
"268 713 OFFCURVE",
"279 711 OFFCURVE",
"286 710 CURVE SMOOTH",
"293 709 OFFCURVE",
"300 709 OFFCURVE",
"308 712 CURVE",
"327 707 OFFCURVE",
"348 708 OFFCURVE",
"371 715 CURVE SMOOTH",
"393 721 OFFCURVE",
"409 724 OFFCURVE",
"420 724 CURVE",
"219 769 OFFCURVE",
"80 937 OFFCURVE",
"80 1138 CURVE SMOOTH",
"80 1140 LINE",
"96 1135 OFFCURVE",
"111 1129 OFFCURVE",
"126 1122 CURVE SMOOTH",
"141 1115 OFFCURVE",
"156 1110 OFFCURVE",
"172 1106 CURVE SMOOTH",
"188 1102 OFFCURVE",
"204 1098 OFFCURVE",
"220 1094 CURVE SMOOTH",
"236 1090 OFFCURVE",
"253 1089 OFFCURVE",
"272 1092 CURVE",
"167 1149 OFFCURVE",
"84 1304 OFFCURVE",
"84 1429 CURVE SMOOTH",
"84 1492 OFFCURVE",
"91 1541 OFFCURVE",
"106 1576 CURVE SMOOTH",
"121 1611 OFFCURVE",
"132 1636 OFFCURVE",
"140 1652 CURVE",
"367 1380 OFFCURVE",
"656 1233 OFFCURVE",
"1008 1212 CURVE",
"1003 1228 OFFCURVE",
"1000 1238 OFFCURVE",
"1000 1242 CURVE",
"996 1308 LINE",
"996 1420 OFFCURVE",
"1045 1529 OFFCURVE",
"1120 1604 CURVE SMOOTH",
"1195 1679 OFFCURVE",
"1304 1728 OFFCURVE",
"1416 1728 CURVE SMOOTH",
"1533 1728 OFFCURVE",
"1636 1684 OFFCURVE",
"1724 1596 CURVE",
"1748 1599 OFFCURVE",
"1771 1604 OFFCURVE",
"1794 1612 CURVE SMOOTH",
"1817 1620 OFFCURVE",
"1839 1628 OFFCURVE",
"1862 1636 CURVE SMOOTH",
"1885 1644 OFFCURVE",
"1907 1653 OFFCURVE",
"1928 1664 CURVE SMOOTH",
"1949 1675 OFFCURVE",
"1971 1685 OFFCURVE",
"1992 1696 CURVE",
"1957 1591 OFFCURVE",
"1881 1507 OFFCURVE",
"1804 1464 CURVE",
"1878 1473 OFFCURVE",
"1933 1485 OFFCURVE",
"1968 1499 CURVE SMOOTH",
"2003 1513 OFFCURVE",
"2029 1524 OFFCURVE",
"2048 1532 CURVE",
"2000 1455 OFFCURVE",
"1929 1382 OFFCURVE",
"1836 1312 CURVE",
"1837 1306 LINE"
);
}
);
width = 2048;
}
);
unicode = E06B;
},
